<svg width="1597" height="585" viewBox="0 0 1597 585" xmlns="http://www.w3.org/2000/svg" xmlns:xlink="http://www.w3.org/1999/xlink"><title>0FF76410-D426-4D85-8092-6CF0FE2DB71B</title><defs><path id="a" d="M33.936 37.753V.125H.61v37.628h33.326z"/><path id="c" d="M32.784.099H.757v35.747h32.027V.1z"/><path id="e" d="M0 584h1596.936V.099H0z"/></defs><g fill="none" fill-rule="evenodd"><path stroke="#00A3DB" stroke-width="1.5" d="M1576.633 214.015l-14.293-14.293 14.293-14.293 14.293 14.293z"/><g transform="translate(0 .901)"><g transform="translate(1563 55)"><mask id="b" fill="#fff"><use xlink:href="#a"/></mask><path d="M29.342 26.943A51.827 51.827 0 0 1 15.824.125a18.922 18.922 0 0 0-9.813 5.354c-7.33 7.517-7.18 19.555.337 26.886 5.295 5.163 12.826 6.598 19.381 4.379a18.91 18.91 0 0 0 7.505-4.717c.25-.256.47-.53.702-.796a52.34 52.34 0 0 1-3.184-2.842 51.82 51.82 0 0 1-1.41-1.446z" stroke="#286AA6" mask="url(#b)"/></g><path d="M1270.562 142.606a51.834 51.834 0 0 1-16.326-25.207 18.922 18.922 0 0 0-9.18 6.379c-6.48 8.262-5.033 20.213 3.23 26.693 5.819 4.563 13.46 5.179 19.739 2.267a18.898 18.898 0 0 0 6.954-5.497c.22-.281.409-.577.61-.866a53.103 53.103 0 0 1-3.47-2.483 52.878 52.878 0 0 1-1.557-1.286z" stroke="#EFA047" stroke-width="2"/><g transform="translate(1229)"><mask id="d" fill="#fff"><use xlink:href="#c"/></mask><path d="M18.475 7.43c4.529 3.263 5.557 9.579 2.295 14.108-3.261 4.53-9.577 5.557-14.107 2.295L.757 32.035c9.059 6.523 21.69 4.468 28.215-4.591C35.495 18.384 33.44 5.753 24.38-.77l-5.906 8.2z" stroke="#292D78" mask="url(#d)"/></g><path stroke="#286AA6" d="M1485.34 190.173l20.213 20.213V169.96l-20.213 20.213"/><path stroke="#00A3DB" stroke-width="1.5" d="M1365.749 228.127l20.213 20.213h-40.426l20.213-20.213"/><path stroke="#286AA6" d="M1404.407 88.31h-28.586l28.586-28.586V88.31"/><path d="M1313.983 215.789l-.354-.354" stroke="#71498C"/><path d="M1312.907 214.713l-18.423-18.422" stroke="#71498C" stroke-dasharray="1.022,1.022"/><path stroke="#71498C" d="M1294.123 195.93l-.354-.355h.5"/><path d="M1295.28 195.576h37.91" stroke="#71498C" stroke-dasharray="1.011,1.011"/><path stroke="#71498C" d="M1333.696 195.576h.5l-.354.354"/><path d="M1333.12 196.652l-18.421 18.422" stroke="#71498C" stroke-dasharray="1.022,1.022"/><path d="M1314.337 215.435l-.354.354" stroke="#71498C"/><mask id="f" fill="#fff"><use xlink:href="#e"/></mask><path stroke="#00A3DB" stroke-width="1.5" mask="url(#f)" d="M1431.439 151.469h10.107v-20.213h-10.107z"/><path stroke="#EFA047" stroke-width="2" mask="url(#f)" d="M1530.625 255.34h10.107v-20.213h-10.107z"/><path d="M1490.89 78.195h-.5c0 .168-.005.334-.013.5" stroke="#71498C" mask="url(#f)"/><path d="M1490.28 79.682c-.718 4.877-4.92 8.619-9.997 8.619-5.25 0-9.564-4.002-10.06-9.121" stroke="#71498C" stroke-dasharray="0.992,0.992" mask="url(#f)"/><path d="M1470.189 78.695a10.365 10.365 0 0 1-.012-.5h-.5" stroke="#71498C" mask="url(#f)"/><path d="M1468.664 78.195h-7.589" stroke="#71498C" stroke-dasharray="1.012,1.012" mask="url(#f)"/><path d="M1460.57 78.195h-.5c0 .167.002.334.006.5" stroke="#71498C" mask="url(#f)"/><path d="M1460.124 79.685c.763 10.467 9.497 18.722 20.159 18.722 10.829 0 19.669-8.516 20.189-19.216" stroke="#71498C" stroke-dasharray="0.992,0.992" mask="url(#f)"/><path d="M1500.49 78.695c.004-.166.006-.333.006-.5h-.5" stroke="#71498C" mask="url(#f)"/><path d="M1498.984 78.195h-7.589" stroke="#71498C" stroke-dasharray="1.012,1.012" mask="url(#f)"/><path d="M1406.685 184.51c-5.582 0-10.107 4.525-10.107 10.107 0 5.58 4.525 10.106 10.107 10.106v-20.214z" stroke="#EFA047" stroke-width="2" mask="url(#f)"/><path d="M1278.292 239.486c0 5.582-4.525 10.107-10.107 10.107-5.581 0-10.106-4.525-10.106-10.107 0-5.582 4.525-10.107 10.106-10.107 5.582 0 10.107 4.525 10.107 10.107zM1360.913 136.134c0 5.582-4.525 10.107-10.107 10.107-5.581 0-10.106-4.525-10.106-10.107 0-5.582 4.525-10.107 10.106-10.107 5.582 0 10.107 4.525 10.107 10.107z" stroke="#292D78" mask="url(#f)"/><path d="M1544.204 133.833c0 5.582-4.525 10.107-10.107 10.107-5.582 0-10.106-4.525-10.106-10.107 0-5.582 4.524-10.107 10.106-10.107s10.107 4.525 10.107 10.107z" stroke="#71498C" stroke-dasharray="0.992,0.992" mask="url(#f)"/><path d="M1451.86 16.565c-6.47-5.312-16.024-4.372-21.336 2.099-5.312 6.472-4.373 16.024 2.1 21.336l19.236-23.435z" stroke="#EFA047" stroke-width="2" mask="url(#f)"/><path d="M1469.832 228.48l.354-.353a16.708 16.708 0 0 0-.36-.347" stroke="#71498C" mask="url(#f)"/><path d="M1469.08 227.125c-5.954-4.896-14.77-4.562-20.333 1.002-5.684 5.684-5.911 14.758-.682 20.712" stroke="#71498C" stroke-dasharray="0.992,0.992" mask="url(#f)"/><path d="M1448.398 249.207c.114.121.23.241.348.36l.353-.354" stroke="#71498C" mask="url(#f)"/><path d="M1449.815 248.498l19.66-19.66" stroke="#71498C" stroke-dasharray="1.011,1.011" mask="url(#f)"/><path stroke="#71498C" mask="url(#f)" d="M1183.18 151.294h-.5v-.5"/><path d="M1182.68 149.783V121.98" stroke="#71498C" stroke-dasharray="1.011,1.011" mask="url(#f)"/><path stroke="#71498C" mask="url(#f)" d="M1182.68 121.474v-.5h.5"/><path d="M1184.19 120.974h17.697" stroke="#71498C" stroke-dasharray="1.011,1.011" mask="url(#f)"/><path stroke="#71498C" mask="url(#f)" d="M1202.393 120.974h.5v.5"/><path d="M1202.893 122.486v27.802" stroke="#71498C" stroke-dasharray="1.011,1.011" mask="url(#f)"/><path stroke="#71498C" mask="url(#f)" d="M1202.893 150.794v.5h-.5"/><path d="M1201.381 151.294h-17.696" stroke="#71498C" stroke-dasharray="1.011,1.011" mask="url(#f)"/><path stroke="#00A3DB" stroke-width="1.5" mask="url(#f)" d="M1213.633 209.564l-14.293-14.293 14.293-14.293 14.293 14.293zM1330.593 33.948h20.213V13.735h-20.213z"/><path stroke="#71498C" mask="url(#f)" d="M1294.579 91.23h-.5v-.5"/><path d="M1294.079 89.719V72.023" stroke="#71498C" stroke-dasharray="1.011,1.011" mask="url(#f)"/><path stroke="#71498C" mask="url(#f)" d="M1294.079 71.517v-.5h.5"/><path d="M1295.59 71.017h7.59" stroke="#71498C" stroke-dasharray="1.012,1.012" mask="url(#f)"/><path stroke="#71498C" mask="url(#f)" d="M1303.685 71.017h.5v.5"/><path d="M1304.185 72.528v17.696" stroke="#71498C" stroke-dasharray="1.011,1.011" mask="url(#f)"/><path stroke="#71498C" mask="url(#f)" d="M1304.185 90.73v.5h-.5"/><path d="M1302.674 91.23h-7.59" stroke="#71498C" stroke-dasharray="1.012,1.012" mask="url(#f)"/><path stroke="#E0542F" mask="url(#f)" d="M1520.519 42.631h20.213V22.418h-20.213z"/><path d="M1209.04 70.314a51.827 51.827 0 0 1-13.518-26.818 18.922 18.922 0 0 0-9.813 5.354c-7.331 7.517-7.18 19.555.337 26.886 5.295 5.163 12.826 6.598 19.38 4.38a18.91 18.91 0 0 0 7.506-4.718c.25-.256.469-.53.702-.796a52.34 52.34 0 0 1-3.184-2.842 51.82 51.82 0 0 1-1.41-1.446zM836.067 12.863a51.84 51.84 0 0 1-17.665 24.288 18.919 18.919 0 0 0 9.25 6.277c10.037 3.08 20.672-2.56 23.753-12.598 2.17-7.07 0-14.423-4.97-19.237a18.909 18.909 0 0 0-7.627-4.517c-.342-.104-.687-.174-1.03-.26a52.59 52.59 0 0 1-1.07 4.132c-.2.648-.42 1.28-.641 1.915z" stroke="#286AA6" mask="url(#f)"/><path d="M1144.02 187.326l-.353.354c.119.118.24.233.363.344" stroke="#71498C" mask="url(#f)"/><path d="M1144.795 188.654c3.957 2.94 9.575 2.615 13.164-.975 3.712-3.712 3.933-9.593.663-13.563" stroke="#71498C" stroke-dasharray="0.992,0.992" mask="url(#f)"/><path d="M1158.305 173.748a9.022 9.022 0 0 0-.345-.362l-.353.353" stroke="#71498C" mask="url(#f)"/><path d="M1156.891 174.455l-12.513 12.513" stroke="#71498C" stroke-dasharray="1.011,1.011" mask="url(#f)"/><path d="M836.27 129.064c3.947 3.947 3.947 10.346 0 14.293-3.947 3.947-10.346 3.947-14.293 0l-7.146 7.146c7.893 7.894 20.692 7.894 28.586 0 7.893-7.894 7.893-20.692 0-28.586l-7.147 7.147z" stroke="#E0542F" mask="url(#f)"/><path stroke="#286AA6" mask="url(#f)" d="M1071.84 190.173l20.213 20.213V169.96l-20.213 20.213"/><path stroke="#292D78" mask="url(#f)" d="M970.724 243.725l20.213 20.213H950.51l20.213-20.213"/><path stroke="#286AA6" mask="url(#f)" d="M1038.907 35.856h-28.586l28.586-28.586v28.586"/><path d="M890.685 215.789l-.354-.354" stroke="#71498C" mask="url(#f)"/><path d="M889.61 214.713l-18.424-18.422" stroke="#71498C" stroke-dasharray="1.022,1.022" mask="url(#f)"/><path stroke="#71498C" mask="url(#f)" d="M870.826 195.93l-.354-.355h.5"/><path d="M871.983 195.576h37.91" stroke="#71498C" stroke-dasharray="1.011,1.011" mask="url(#f)"/><path stroke="#71498C" mask="url(#f)" d="M910.399 195.576h.5l-.354.354"/><path d="M909.823 196.652L891.4 215.074" stroke="#71498C" stroke-dasharray="1.022,1.022" mask="url(#f)"/><path d="M891.04 215.435l-.355.354M1018.438 151.47h-.5v-.5" stroke="#71498C" mask="url(#f)"/><path d="M1017.938 149.958v-17.696" stroke="#71498C" stroke-dasharray="1.011,1.011" mask="url(#f)"/><path stroke="#71498C" mask="url(#f)" d="M1017.938 131.756v-.5h.5"/><path d="M1019.45 131.256h7.59" stroke="#71498C" stroke-dasharray="1.012,1.012" mask="url(#f)"/><path stroke="#71498C" mask="url(#f)" d="M1027.545 131.256h.5v.5"/><path d="M1028.045 132.767v17.696" stroke="#71498C" stroke-dasharray="1.011,1.011" mask="url(#f)"/><path stroke="#71498C" mask="url(#f)" d="M1028.045 150.97v.5h-.5"/><path d="M1026.533 151.47h-7.589" stroke="#71498C" stroke-dasharray="1.012,1.012" mask="url(#f)"/><path stroke="#EFA047" stroke-width="2" mask="url(#f)" d="M1155.54 261.208h10.107v-20.213h-10.107z"/><path d="M1076.89 78.195c0 5.582-4.526 10.107-10.107 10.107-5.582 0-10.107-4.526-10.107-10.108h-10.107c0 11.163 9.05 20.213 20.214 20.213 11.163 0 20.213-9.05 20.213-20.212h-10.107z" stroke="#292D78" mask="url(#f)"/><path d="M993.185 184.51c-5.582 0-10.107 4.525-10.107 10.107 0 5.58 4.525 10.106 10.107 10.106v-20.214zM849.107 257.131c0 5.582-4.525 10.107-10.107 10.107-5.58 0-10.106-4.525-10.106-10.107 0-5.582 4.525-10.107 10.106-10.107 5.582 0 10.107 4.525 10.107 10.107z" stroke="#EFA047" stroke-width="2" mask="url(#f)"/><path d="M947.413 136.134c0 5.582-4.525 10.107-10.107 10.107-5.581 0-10.106-4.525-10.106-10.107 0-5.582 4.525-10.107 10.106-10.107 5.582 0 10.107 4.525 10.107 10.107z" stroke="#292D78" mask="url(#f)"/><path d="M1130.703 133.833c0 5.582-4.525 10.107-10.107 10.107-5.58 0-10.106-4.525-10.106-10.107 0-5.582 4.525-10.107 10.106-10.107 5.582 0 10.107 4.525 10.107 10.107z" stroke="#E0542F" mask="url(#f)"/><path d="M979.743 91.267c5.92-5.92 5.92-15.52 0-21.44-5.92-5.92-15.52-5.92-21.44 0l21.44 21.44z" stroke="#EFA047" stroke-width="2" mask="url(#f)"/><path d="M1071.678 232.78l.354-.354a16.708 16.708 0 0 0-.36-.347" stroke="#71498C" mask="url(#f)"/><path d="M1070.927 231.424c-5.955-4.896-14.77-4.562-20.334 1.002-5.684 5.684-5.911 14.758-.682 20.712" stroke="#71498C" stroke-dasharray="0.992,0.992" mask="url(#f)"/><path d="M1050.245 253.506c.114.121.229.241.348.36l.352-.354" stroke="#71498C" mask="url(#f)"/><path d="M1051.66 252.797l19.66-19.66" stroke="#71498C" stroke-dasharray="1.011,1.011" mask="url(#f)"/><path stroke="#71498C" mask="url(#f)" d="M937.306 33.448v.5h-.5"/><path d="M935.795 33.948h-17.696" stroke="#71498C" stroke-dasharray="1.011,1.011" mask="url(#f)"/><path stroke="#71498C" mask="url(#f)" d="M917.593 33.948h-.5v-.5"/><path d="M917.093 32.437V14.741" stroke="#71498C" stroke-dasharray="1.011,1.011" mask="url(#f)"/><path stroke="#71498C" mask="url(#f)" d="M917.093 14.235v-.5h.5"/><path d="M918.604 13.735H936.3" stroke="#71498C" stroke-dasharray="1.011,1.011" mask="url(#f)"/><path stroke="#71498C" mask="url(#f)" d="M936.806 13.735h.5v.5"/><path d="M937.306 15.246v17.696" stroke="#71498C" stroke-dasharray="1.011,1.011" mask="url(#f)"/><path stroke="#00A3DB" stroke-width="1.5" mask="url(#f)" d="M880.579 91.23h10.107V71.017h-10.107z"/><path stroke="#E0542F" mask="url(#f)" d="M1117.125 46.817l-14.293-14.293 14.293-14.293 14.293 14.293z"/><path stroke="#00A3DB" stroke-width="1.5" mask="url(#f)" d="M783.667 213.114l-14.293-14.293 14.293-14.293 14.293 14.293z"/><path d="M698.2 251.559a51.827 51.827 0 0 1-13.518-26.818 18.92 18.92 0 0 0-9.813 5.354c-7.331 7.517-7.18 19.555.338 26.886 5.294 5.163 12.825 6.598 19.381 4.379a18.913 18.913 0 0 0 7.504-4.717c.25-.256.469-.53.702-.796a52.34 52.34 0 0 1-3.184-2.842 51.82 51.82 0 0 1-1.41-1.446z" stroke="#286AA6" mask="url(#f)"/><path d="M477.596 142.606a51.834 51.834 0 0 1-16.326-25.207 18.922 18.922 0 0 0-9.18 6.379c-6.48 8.262-5.033 20.213 3.23 26.693 5.819 4.563 13.46 5.179 19.739 2.267a18.898 18.898 0 0 0 6.954-5.497c.22-.281.409-.577.61-.866a53.103 53.103 0 0 1-3.47-2.483c-.533-.418-1.045-.852-1.557-1.286z" stroke="#EFA047" stroke-width="2" mask="url(#f)"/><path d="M454.509 7.43c4.529 3.263 5.557 9.579 2.295 14.108-3.261 4.53-9.577 5.557-14.107 2.295l-5.906 8.202c9.059 6.523 21.69 4.468 28.215-4.591 6.523-9.06 4.468-21.691-4.591-28.214l-5.906 8.2z" stroke="#292D78" mask="url(#f)"/><path stroke="#286AA6" mask="url(#f)" d="M689.669 173.732l20.213 20.214v-40.427l-20.213 20.213M574 240.683l20.214 20.213h-40.426L574 240.683M611.441 88.31h-28.586l28.586-28.586V88.31"/><path d="M521.017 215.789l-.354-.354" stroke="#71498C" mask="url(#f)"/><path d="M519.941 214.713l-18.423-18.422" stroke="#71498C" stroke-dasharray="1.022,1.022" mask="url(#f)"/><path stroke="#71498C" mask="url(#f)" d="M501.157 195.93l-.354-.355h.5"/><path d="M502.315 195.576h37.91" stroke="#71498C" stroke-dasharray="1.011,1.011" mask="url(#f)"/><path stroke="#71498C" mask="url(#f)" d="M540.73 195.576h.5l-.354.354"/><path d="M540.154 196.652l-18.422 18.422" stroke="#71498C" stroke-dasharray="1.022,1.022" mask="url(#f)"/><path d="M521.37 215.435l-.354.354" stroke="#71498C" mask="url(#f)"/><path stroke="#00A3DB" stroke-width="1.5" mask="url(#f)" d="M638.472 151.469h10.107v-20.213h-10.107z"/><path stroke="#EFA047" stroke-width="2" mask="url(#f)" d="M765.185 259.699h10.107v-20.213h-10.107z"/><path d="M697.423 78.195c0 5.582-4.525 10.107-10.106 10.107-5.582 0-10.107-4.526-10.107-10.108h-10.107c0 11.163 9.05 20.213 20.214 20.213 11.163 0 20.213-9.05 20.213-20.212h-10.107z" stroke="#286AA6" mask="url(#f)"/><path d="M613.72 184.51c-5.583 0-10.108 4.525-10.108 10.107 0 5.58 4.525 10.106 10.107 10.106v-20.214z" stroke="#EFA047" stroke-width="2" mask="url(#f)"/><path d="M479.748 257.131c0 5.582-4.525 10.107-10.107 10.107-5.581 0-10.106-4.525-10.106-10.107 0-5.582 4.525-10.107 10.106-10.107 5.582 0 10.107 4.525 10.107 10.107z" stroke="#71498C" stroke-dasharray="0.992,0.992" mask="url(#f)"/><path d="M567.946 136.134c0 5.582-4.525 10.107-10.107 10.107-5.58 0-10.106-4.525-10.106-10.107 0-5.582 4.525-10.107 10.106-10.107 5.582 0 10.107 4.525 10.107 10.107z" stroke="#292D78" mask="url(#f)"/><path d="M751.237 133.833c0 5.582-4.525 10.107-10.107 10.107-5.58 0-10.106-4.525-10.106-10.107 0-5.582 4.525-10.107 10.106-10.107 5.582 0 10.107 4.525 10.107 10.107zM658.894 16.565c-6.47-5.312-16.024-4.372-21.336 2.099-5.312 6.472-4.373 16.024 2.1 21.336l19.236-23.435z" stroke="#EFA047" stroke-width="2" mask="url(#f)"/><path d="M796.6 68.602l.355-.354a16.708 16.708 0 0 0-.36-.347" stroke="#71498C" mask="url(#f)"/><path d="M795.85 67.246c-5.956-4.896-14.77-4.562-20.336 1.003-5.683 5.683-5.91 14.757-.68 20.71" stroke="#71498C" stroke-dasharray="0.992,0.992" mask="url(#f)"/><path d="M775.167 89.328c.114.121.23.241.348.36l.353-.354" stroke="#71498C" mask="url(#f)"/><path d="M776.583 88.619l19.66-19.66" stroke="#71498C" stroke-dasharray="1.011,1.011" mask="url(#f)"/><path stroke="#71498C" mask="url(#f)" d="M390.213 151.294h-.5v-.5"/><path d="M389.713 149.783V121.98" stroke="#71498C" stroke-dasharray="1.011,1.011" mask="url(#f)"/><path stroke="#71498C" mask="url(#f)" d="M389.713 121.474v-.5h.5"/><path d="M391.224 120.974h17.697" stroke="#71498C" stroke-dasharray="1.011,1.011" mask="url(#f)"/><path stroke="#71498C" mask="url(#f)" d="M409.426 120.974h.5v.5"/><path d="M409.926 122.486v27.802" stroke="#71498C" stroke-dasharray="1.011,1.011" mask="url(#f)"/><path stroke="#71498C" mask="url(#f)" d="M409.926 150.794v.5h-.5"/><path d="M408.415 151.294H390.72" stroke="#71498C" stroke-dasharray="1.011,1.011" mask="url(#f)"/><path stroke="#00A3DB" stroke-width="1.5" mask="url(#f)" d="M420.667 209.564l-14.293-14.293 14.293-14.293 14.293 14.293zM537.627 33.948h20.213V13.735h-20.213z"/><path stroke="#71498C" mask="url(#f)" d="M501.613 91.23h-.5v-.5"/><path d="M501.113 89.719V72.023" stroke="#71498C" stroke-dasharray="1.011,1.011" mask="url(#f)"/><path stroke="#71498C" mask="url(#f)" d="M501.113 71.517v-.5h.5"/><path d="M502.624 71.017h7.59" stroke="#71498C" stroke-dasharray="1.012,1.012" mask="url(#f)"/><path stroke="#71498C" mask="url(#f)" d="M510.72 71.017h.5v.5"/><path d="M511.22 72.528v17.696" stroke="#71498C" stroke-dasharray="1.011,1.011" mask="url(#f)"/><path stroke="#71498C" mask="url(#f)" d="M511.22 90.73v.5h-.5"/><path d="M509.707 91.23h-7.589" stroke="#71498C" stroke-dasharray="1.012,1.012" mask="url(#f)"/><path stroke="#71498C" mask="url(#f)" d="M738.013 46.464l-.355.354-.352-.354"/><path d="M736.59 45.749l-12.513-12.513" stroke="#71498C" stroke-dasharray="1.011,1.011" mask="url(#f)"/><path stroke="#71498C" mask="url(#f)" d="M723.72 32.878l-.354-.354.354-.353"/><path d="M724.435 31.456l12.513-12.513" stroke="#71498C" stroke-dasharray="1.011,1.011" mask="url(#f)"/><path stroke="#71498C" mask="url(#f)" d="M737.306 18.585l.353-.354.354.354"/><path d="M738.728 19.3l12.513 12.513" stroke="#71498C" stroke-dasharray="1.011,1.011" mask="url(#f)"/><path stroke="#71498C" mask="url(#f)" d="M751.598 32.17l.354.355-.354.353"/><path d="M750.883 33.593L738.37 46.106" stroke="#71498C" stroke-dasharray="1.011,1.011" mask="url(#f)"/><path d="M416.074 70.314a51.827 51.827 0 0 1-13.518-26.818 18.926 18.926 0 0 0-9.813 5.354c-7.331 7.517-7.18 19.555.338 26.886 5.294 5.163 12.825 6.598 19.38 4.38a18.913 18.913 0 0 0 7.505-4.718c.25-.256.469-.53.702-.796a52.34 52.34 0 0 1-3.184-2.842 51.82 51.82 0 0 1-1.41-1.446zM49.838 125.175a51.835 51.835 0 0 1-17.665 24.288 18.919 18.919 0 0 0 9.25 6.277c10.038 3.081 20.673-2.56 23.754-12.598 2.17-7.069 0-14.423-4.97-19.237a18.909 18.909 0 0 0-7.628-4.517c-.342-.104-.686-.174-1.029-.259a52.59 52.59 0 0 1-1.07 4.131c-.2.648-.42 1.281-.642 1.915z" stroke="#286AA6" mask="url(#f)"/><path d="M351.054 187.326l-.354.354c.12.118.24.233.363.344" stroke="#71498C" mask="url(#f)"/><path d="M351.83 188.654c3.956 2.94 9.574 2.615 13.163-.975 3.712-3.712 3.933-9.593.663-13.563" stroke="#71498C" stroke-dasharray="0.992,0.992" mask="url(#f)"/><path d="M365.339 173.748a10.698 10.698 0 0 0-.345-.362l-.353.353" stroke="#71498C" mask="url(#f)"/><path d="M363.925 174.455l-12.513 12.513" stroke="#71498C" stroke-dasharray="1.011,1.011" mask="url(#f)"/><path d="M57.597 21.538c-3.947 3.947-10.346 3.947-14.293 0-3.947-3.947-3.947-10.346 0-14.293L36.158.099c-7.894 7.893-7.894 20.692 0 28.586 7.894 7.893 20.692 7.893 28.586 0l-7.147-7.147z" stroke="#E0542F" mask="url(#f)"/><path stroke="#286AA6" mask="url(#f)" d="M278.874 173.732l20.213 20.214v-40.427l-20.213 20.213"/><path stroke="#292D78" mask="url(#f)" d="M158.064 243.725l20.213 20.213H137.85l20.213-20.213"/><path stroke="#286AA6" mask="url(#f)" d="M245.941 35.856h-28.586L245.941 7.27v28.586"/><path d="M97.72 215.789l-.355-.354" stroke="#71498C" mask="url(#f)"/><path d="M96.643 214.713L78.22 196.29" stroke="#71498C" stroke-dasharray="1.022,1.022" mask="url(#f)"/><path stroke="#71498C" mask="url(#f)" d="M77.86 195.93l-.354-.355h.5"/><path d="M79.017 195.576h37.91" stroke="#71498C" stroke-dasharray="1.011,1.011" mask="url(#f)"/><path stroke="#71498C" mask="url(#f)" d="M117.433 195.576h.5l-.355.354"/><path d="M116.856 196.652l-18.421 18.422" stroke="#71498C" stroke-dasharray="1.022,1.022" mask="url(#f)"/><path d="M98.073 215.435l-.354.354M225.472 151.47h-.5v-.5" stroke="#71498C" mask="url(#f)"/><path d="M224.972 149.958v-17.696" stroke="#71498C" stroke-dasharray="1.011,1.011" mask="url(#f)"/><path stroke="#71498C" mask="url(#f)" d="M224.972 131.756v-.5h.5"/><path d="M226.484 131.256h7.59" stroke="#71498C" stroke-dasharray="1.012,1.012" mask="url(#f)"/><path stroke="#71498C" mask="url(#f)" d="M234.579 131.256h.5v.5"/><path d="M235.079 132.767v17.696" stroke="#71498C" stroke-dasharray="1.011,1.011" mask="url(#f)"/><path stroke="#71498C" mask="url(#f)" d="M235.079 150.97v.5h-.5"/><path d="M233.567 151.47h-7.589" stroke="#71498C" stroke-dasharray="1.012,1.012" mask="url(#f)"/><path stroke="#EFA047" stroke-width="2" mask="url(#f)" d="M367.954 269.806h10.107v-20.213h-10.107z"/><path d="M283.923 78.195c0 5.582-4.525 10.107-10.106 10.107-5.582 0-10.107-4.526-10.107-10.108h-10.107c0 11.163 9.05 20.213 20.214 20.213 11.163 0 20.213-9.05 20.213-20.212h-10.107z" stroke="#292D78" mask="url(#f)"/><path d="M200.22 184.51c-5.583 0-10.108 4.525-10.108 10.107 0 5.58 4.525 10.106 10.107 10.106v-20.214zM56.141 257.131c0 5.582-4.525 10.107-10.107 10.107-5.58 0-10.106-4.525-10.106-10.107 0-5.582 4.525-10.107 10.106-10.107 5.582 0 10.107 4.525 10.107 10.107z" stroke="#EFA047" stroke-width="2" mask="url(#f)"/><path d="M154.446 136.134c0 5.582-4.525 10.107-10.107 10.107-5.58 0-10.106-4.525-10.106-10.107 0-5.582 4.525-10.107 10.106-10.107 5.582 0 10.107 4.525 10.107 10.107z" stroke="#292D78" mask="url(#f)"/><path d="M337.737 133.833c0 5.582-4.525 10.107-10.107 10.107-5.58 0-10.106-4.525-10.106-10.107 0-5.582 4.525-10.107 10.106-10.107 5.582 0 10.107 4.525 10.107 10.107z" stroke="#E0542F" mask="url(#f)"/><path d="M186.777 91.267c5.92-5.92 5.92-15.52 0-21.44-5.92-5.92-15.52-5.92-21.44 0l21.44 21.44z" stroke="#EFA047" stroke-width="2" mask="url(#f)"/><path d="M291.46 245.937l.354-.354a16.708 16.708 0 0 0-.36-.347" stroke="#71498C" mask="url(#f)"/><path d="M290.709 244.581c-5.955-4.896-14.77-4.562-20.334 1.002-5.684 5.684-5.911 14.758-.682 20.712" stroke="#71498C" stroke-dasharray="0.992,0.992" mask="url(#f)"/><path d="M270.026 266.664c.114.12.23.24.349.359l.353-.353" stroke="#71498C" mask="url(#f)"/><path d="M271.443 265.954l19.66-19.66" stroke="#71498C" stroke-dasharray="1.011,1.011" mask="url(#f)"/><path stroke="#71498C" mask="url(#f)" d="M144.34 33.448v.5h-.5"/><path d="M142.829 33.948h-17.697" stroke="#71498C" stroke-dasharray="1.011,1.011" mask="url(#f)"/><path stroke="#71498C" mask="url(#f)" d="M124.627 33.948h-.5v-.5"/><path d="M124.127 32.437V14.741" stroke="#71498C" stroke-dasharray="1.011,1.011" mask="url(#f)"/><path stroke="#71498C" mask="url(#f)" d="M124.127 14.235v-.5h.5"/><path d="M125.638 13.735h17.697" stroke="#71498C" stroke-dasharray="1.011,1.011" mask="url(#f)"/><path stroke="#71498C" mask="url(#f)" d="M143.84 13.735h.5v.5"/><path d="M144.34 15.246v17.696" stroke="#71498C" stroke-dasharray="1.011,1.011" mask="url(#f)"/><path stroke="#00A3DB" stroke-width="1.5" mask="url(#f)" d="M87.613 91.23H97.72V71.017H87.613z"/><path stroke="#E0542F" mask="url(#f)" d="M314.053 42.631h20.213V22.418h-20.213z"/><path stroke="#00A3DB" stroke-width="1.5" mask="url(#f)" d="M1576.633 505.924l-14.293-14.293 14.293-14.293 14.293 14.293z"/><path d="M1592.342 374.753a51.827 51.827 0 0 1-13.518-26.818 18.915 18.915 0 0 0-9.813 5.354c-7.33 7.517-7.18 19.555.337 26.886 5.295 5.163 12.826 6.598 19.381 4.379a18.91 18.91 0 0 0 7.505-4.717c.25-.256.47-.53.702-.796a52.34 52.34 0 0 1-3.184-2.842 51.82 51.82 0 0 1-1.41-1.446z" stroke="#286AA6" mask="url(#f)"/><path d="M1270.562 435.416a51.834 51.834 0 0 1-16.326-25.207 18.922 18.922 0 0 0-9.18 6.379c-6.48 8.262-5.033 20.214 3.23 26.693 5.819 4.563 13.46 5.179 19.739 2.267a18.906 18.906 0 0 0 6.954-5.496c.22-.282.409-.578.61-.867a53.103 53.103 0 0 1-3.47-2.483 52.878 52.878 0 0 1-1.557-1.286z" stroke="#EFA047" stroke-width="2" mask="url(#f)"/><path d="M1247.475 300.24c4.529 3.263 5.557 9.579 2.295 14.108-3.261 4.53-9.577 5.557-14.107 2.295l-5.906 8.202c9.059 6.523 21.69 4.468 28.215-4.591 6.523-9.06 4.468-21.691-4.591-28.215l-5.906 8.202z" stroke="#292D78" mask="url(#f)"/><path stroke="#286AA6" mask="url(#f)" d="M1485.34 482.983l20.213 20.213V462.77l-20.213 20.213"/><path stroke="#00A3DB" stroke-width="1.5" mask="url(#f)" d="M1365.749 520.937l20.213 20.213h-40.426l20.213-20.213"/><path stroke="#286AA6" mask="url(#f)" d="M1404.407 381.12h-28.586l28.586-28.586v28.586"/><path d="M1313.983 508.599l-.354-.354" stroke="#71498C" mask="url(#f)"/><path d="M1312.907 507.523l-18.423-18.422" stroke="#71498C" stroke-dasharray="1.022,1.022" mask="url(#f)"/><path stroke="#71498C" mask="url(#f)" d="M1294.123 488.74l-.354-.355h.5"/><path d="M1295.28 488.386h37.91" stroke="#71498C" stroke-dasharray="1.011,1.011" mask="url(#f)"/><path stroke="#71498C" mask="url(#f)" d="M1333.696 488.386h.5l-.354.354"/><path d="M1333.12 489.462l-18.421 18.422" stroke="#71498C" stroke-dasharray="1.022,1.022" mask="url(#f)"/><path d="M1314.337 508.245l-.354.354" stroke="#71498C" mask="url(#f)"/><path stroke="#00A3DB" stroke-width="1.5" mask="url(#f)" d="M1431.439 444.279h10.107v-20.213h-10.107z"/><path stroke="#EFA047" stroke-width="2" mask="url(#f)" d="M1530.625 548.15h10.107v-20.213h-10.107z"/><path d="M1490.89 371.005h-.5c0 .168-.005.334-.013.5" stroke="#71498C" mask="url(#f)"/><path d="M1490.28 372.492c-.718 4.877-4.92 8.619-9.997 8.619-5.25 0-9.564-4.002-10.06-9.121" stroke="#71498C" stroke-dasharray="0.992,0.992" mask="url(#f)"/><path d="M1470.189 371.505a10.365 10.365 0 0 1-.012-.5h-.5" stroke="#71498C" mask="url(#f)"/><path d="M1468.664 371.005h-7.589" stroke="#71498C" stroke-dasharray="1.012,1.012" mask="url(#f)"/><path d="M1460.57 371.005h-.5c0 .167.002.334.006.5" stroke="#71498C" mask="url(#f)"/><path d="M1460.124 372.495c.763 10.467 9.497 18.722 20.159 18.722 10.829 0 19.669-8.516 20.189-19.216" stroke="#71498C" stroke-dasharray="0.992,0.992" mask="url(#f)"/><path d="M1500.49 371.505c.004-.166.006-.333.006-.5h-.5" stroke="#71498C" mask="url(#f)"/><path d="M1498.984 371.005h-7.589" stroke="#71498C" stroke-dasharray="1.012,1.012" mask="url(#f)"/><path d="M1406.685 477.32c-5.582 0-10.107 4.524-10.107 10.106s4.525 10.107 10.107 10.107v-20.214z" stroke="#EFA047" stroke-width="2" mask="url(#f)"/><path d="M1278.292 532.296c0 5.582-4.525 10.107-10.107 10.107-5.581 0-10.106-4.525-10.106-10.107 0-5.582 4.525-10.107 10.106-10.107 5.582 0 10.107 4.525 10.107 10.107zM1360.913 428.944c0 5.582-4.525 10.107-10.107 10.107-5.581 0-10.106-4.525-10.106-10.107 0-5.582 4.525-10.107 10.106-10.107 5.582 0 10.107 4.525 10.107 10.107z" stroke="#292D78" mask="url(#f)"/><path d="M1544.203 426.643c0 5.582-4.525 10.107-10.107 10.107-5.58 0-10.106-4.525-10.106-10.107 0-5.582 4.525-10.107 10.106-10.107 5.582 0 10.107 4.525 10.107 10.107z" stroke="#E0542F" mask="url(#f)"/><path d="M1451.86 309.375c-6.47-5.312-16.024-4.372-21.336 2.1-5.312 6.471-4.373 16.023 2.1 21.335l19.236-23.435z" stroke="#EFA047" stroke-width="2" mask="url(#f)"/><path d="M1469.832 521.29l.354-.353a16.708 16.708 0 0 0-.36-.347" stroke="#71498C" mask="url(#f)"/><path d="M1469.08 519.935c-5.954-4.896-14.77-4.562-20.333 1.002-5.684 5.684-5.911 14.758-.682 20.712" stroke="#71498C" stroke-dasharray="0.992,0.992" mask="url(#f)"/><path d="M1448.398 542.017c.114.121.23.241.348.36l.353-.354" stroke="#71498C" mask="url(#f)"/><path d="M1449.815 541.308l19.66-19.66" stroke="#71498C" stroke-dasharray="1.011,1.011" mask="url(#f)"/><path stroke="#71498C" mask="url(#f)" d="M1183.18 444.104h-.5v-.5"/><path d="M1182.68 442.593V414.79" stroke="#71498C" stroke-dasharray="1.011,1.011" mask="url(#f)"/><path stroke="#71498C" mask="url(#f)" d="M1182.68 414.284v-.5h.5"/><path d="M1184.19 413.784h17.697" stroke="#71498C" stroke-dasharray="1.011,1.011" mask="url(#f)"/><path stroke="#71498C" mask="url(#f)" d="M1202.393 413.784h.5v.5"/><path d="M1202.893 415.296v27.803" stroke="#71498C" stroke-dasharray="1.011,1.011" mask="url(#f)"/><path stroke="#71498C" mask="url(#f)" d="M1202.893 443.604v.5h-.5"/><path d="M1201.381 444.104h-17.696" stroke="#71498C" stroke-dasharray="1.011,1.011" mask="url(#f)"/><path stroke="#00A3DB" stroke-width="1.5" mask="url(#f)" d="M1213.633 502.374l-14.293-14.293 14.293-14.293 14.293 14.293zM1340.7 330.945l-14.293-14.293 14.293-14.293 14.293 14.293z"/><path stroke="#71498C" mask="url(#f)" d="M1294.579 384.04h-.5v-.5"/><path d="M1294.079 382.529v-17.696" stroke="#71498C" stroke-dasharray="1.011,1.011" mask="url(#f)"/><path stroke="#71498C" mask="url(#f)" d="M1294.079 364.327v-.5h.5"/><path d="M1295.59 363.827h7.59" stroke="#71498C" stroke-dasharray="1.012,1.012" mask="url(#f)"/><path stroke="#71498C" mask="url(#f)" d="M1303.685 363.827h.5v.5"/><path d="M1304.185 365.338v17.696" stroke="#71498C" stroke-dasharray="1.011,1.011" mask="url(#f)"/><path stroke="#71498C" mask="url(#f)" d="M1304.185 383.54v.5h-.5"/><path d="M1302.674 384.04h-7.59" stroke="#71498C" stroke-dasharray="1.012,1.012" mask="url(#f)"/><path stroke="#E0542F" mask="url(#f)" d="M1520.519 335.441h20.213v-20.213h-20.213z"/><path d="M1209.04 363.124a51.827 51.827 0 0 1-13.518-26.818 18.915 18.915 0 0 0-9.813 5.354c-7.331 7.517-7.18 19.555.337 26.886 5.295 5.163 12.826 6.598 19.38 4.38a18.91 18.91 0 0 0 7.506-4.718c.25-.256.469-.53.702-.796a52.34 52.34 0 0 1-3.184-2.842 51.82 51.82 0 0 1-1.41-1.446zM842.804 417.985a51.84 51.84 0 0 1-17.665 24.288 18.919 18.919 0 0 0 9.25 6.277c10.038 3.081 20.673-2.56 23.754-12.598 2.17-7.069 0-14.423-4.97-19.237a18.909 18.909 0 0 0-7.628-4.517c-.342-.104-.686-.174-1.029-.259a52.59 52.59 0 0 1-1.07 4.131c-.2.648-.42 1.281-.642 1.915z" stroke="#286AA6" mask="url(#f)"/><path d="M1144.02 480.136l-.353.354c.119.118.24.233.363.344" stroke="#71498C" mask="url(#f)"/><path d="M1144.795 481.464c3.957 2.94 9.575 2.615 13.164-.975 3.712-3.712 3.933-9.593.663-13.563" stroke="#71498C" stroke-dasharray="0.992,0.992" mask="url(#f)"/><path d="M1158.305 466.558a9.022 9.022 0 0 0-.345-.361l-.353.353" stroke="#71498C" mask="url(#f)"/><path d="M1156.891 467.265l-12.513 12.513" stroke="#71498C" stroke-dasharray="1.011,1.011" mask="url(#f)"/><path d="M836.27 300.055c3.947 3.947 3.947 10.346 0 14.293-3.947 3.947-10.346 3.947-14.293 0l-7.146 7.146c7.893 7.894 20.692 7.894 28.586 0 7.893-7.894 7.893-20.692 0-28.586l-7.147 7.147z" stroke="#00A3DB" stroke-width="1.5" mask="url(#f)"/><path stroke="#286AA6" mask="url(#f)" d="M1071.84 482.983l20.213 20.213V462.77l-20.213 20.213"/><path stroke="#292D78" mask="url(#f)" d="M970.724 536.534l20.213 20.213H950.51l20.213-20.212"/><path stroke="#286AA6" mask="url(#f)" d="M1038.907 328.666h-28.586l28.586-28.586v28.586"/><path d="M890.685 508.599l-.354-.354" stroke="#71498C" mask="url(#f)"/><path d="M889.61 507.523L871.185 489.1" stroke="#71498C" stroke-dasharray="1.022,1.022" mask="url(#f)"/><path stroke="#71498C" mask="url(#f)" d="M870.826 488.74l-.354-.355h.5"/><path d="M871.983 488.386h37.91" stroke="#71498C" stroke-dasharray="1.011,1.011" mask="url(#f)"/><path stroke="#71498C" mask="url(#f)" d="M910.399 488.386h.5l-.354.354"/><path d="M909.823 489.462L891.4 507.884" stroke="#71498C" stroke-dasharray="1.022,1.022" mask="url(#f)"/><path d="M891.04 508.245l-.355.354M1018.438 444.28h-.5v-.5" stroke="#71498C" mask="url(#f)"/><path d="M1017.938 442.768v-17.696" stroke="#71498C" stroke-dasharray="1.011,1.011" mask="url(#f)"/><path stroke="#71498C" mask="url(#f)" d="M1017.938 424.566v-.5h.5"/><path d="M1019.45 424.066h7.59" stroke="#71498C" stroke-dasharray="1.012,1.012" mask="url(#f)"/><path stroke="#71498C" mask="url(#f)" d="M1027.545 424.066h.5v.5"/><path d="M1028.045 425.577v17.696" stroke="#71498C" stroke-dasharray="1.011,1.011" mask="url(#f)"/><path stroke="#71498C" mask="url(#f)" d="M1028.045 443.78v.5h-.5"/><path d="M1026.533 444.28h-7.589" stroke="#71498C" stroke-dasharray="1.012,1.012" mask="url(#f)"/><path stroke="#EFA047" stroke-width="2" mask="url(#f)" d="M1155.54 554.018h10.107v-20.213h-10.107z"/><path d="M1076.89 371.005c0 5.582-4.526 10.106-10.107 10.106-5.582 0-10.107-4.524-10.107-10.106h-10.107c0 11.163 9.05 20.212 20.214 20.212 11.163 0 20.213-9.05 20.213-20.212h-10.107z" stroke="#292D78" mask="url(#f)"/><path d="M993.185 477.32c-5.582 0-10.107 4.524-10.107 10.106s4.525 10.107 10.107 10.107v-20.214zM849.107 549.941c0 5.582-4.525 10.107-10.107 10.107-5.58 0-10.106-4.525-10.106-10.107 0-5.582 4.525-10.107 10.106-10.107 5.582 0 10.107 4.525 10.107 10.107z" stroke="#EFA047" stroke-width="2" mask="url(#f)"/><path d="M947.413 428.944c0 5.582-4.525 10.107-10.107 10.107-5.581 0-10.106-4.525-10.106-10.107 0-5.582 4.525-10.107 10.106-10.107 5.582 0 10.107 4.525 10.107 10.107z" stroke="#292D78" mask="url(#f)"/><path d="M1130.703 426.643c0 5.582-4.525 10.107-10.107 10.107-5.58 0-10.106-4.525-10.106-10.107 0-5.582 4.525-10.107 10.106-10.107 5.582 0 10.107 4.525 10.107 10.107z" stroke="#E0542F" mask="url(#f)"/><path d="M979.743 384.077c5.92-5.92 5.92-15.52 0-21.44-5.92-5.92-15.52-5.92-21.44 0l21.44 21.44z" stroke="#EFA047" stroke-width="2" mask="url(#f)"/><path d="M1071.678 525.59l.354-.354a16.708 16.708 0 0 0-.36-.347" stroke="#71498C" mask="url(#f)"/><path d="M1070.927 524.234c-5.955-4.896-14.77-4.562-20.334 1.002-5.684 5.684-5.911 14.758-.682 20.712" stroke="#71498C" stroke-dasharray="0.992,0.992" mask="url(#f)"/><path d="M1050.245 546.316c.114.121.229.241.348.36l.352-.354" stroke="#71498C" mask="url(#f)"/><path d="M1051.66 545.607l19.66-19.66" stroke="#71498C" stroke-dasharray="1.011,1.011" mask="url(#f)"/><path stroke="#71498C" mask="url(#f)" d="M937.306 326.258v.5h-.5"/><path d="M935.795 326.758h-17.696" stroke="#71498C" stroke-dasharray="1.011,1.011" mask="url(#f)"/><path stroke="#71498C" mask="url(#f)" d="M917.593 326.758h-.5v-.5"/><path d="M917.093 325.247v-17.696" stroke="#71498C" stroke-dasharray="1.011,1.011" mask="url(#f)"/><path stroke="#71498C" mask="url(#f)" d="M917.093 307.045v-.5h.5"/><path d="M918.604 306.545H936.3" stroke="#71498C" stroke-dasharray="1.011,1.011" mask="url(#f)"/><path stroke="#71498C" mask="url(#f)" d="M936.806 306.545h.5v.5"/><path d="M937.306 308.056v17.696" stroke="#71498C" stroke-dasharray="1.011,1.011" mask="url(#f)"/><path stroke="#00A3DB" stroke-width="1.5" mask="url(#f)" d="M880.579 384.04h10.107v-20.213h-10.107zM1107.019 335.441h20.213v-20.213h-20.213zM783.667 505.924l-14.293-14.293 14.293-14.293 14.293 14.293z"/><path d="M799.376 374.753a51.827 51.827 0 0 1-13.518-26.818 18.92 18.92 0 0 0-9.813 5.354c-7.33 7.517-7.18 19.555.337 26.886 5.295 5.163 12.826 6.598 19.382 4.379a18.913 18.913 0 0 0 7.504-4.717c.25-.256.47-.53.702-.796a52.34 52.34 0 0 1-3.184-2.842 51.82 51.82 0 0 1-1.41-1.446z" stroke="#286AA6" mask="url(#f)"/><path d="M477.596 435.416a51.834 51.834 0 0 1-16.326-25.207 18.922 18.922 0 0 0-9.18 6.379c-6.48 8.262-5.033 20.214 3.23 26.693 5.819 4.563 13.46 5.179 19.739 2.267a18.906 18.906 0 0 0 6.954-5.496c.22-.282.409-.578.61-.867a53.103 53.103 0 0 1-3.47-2.483c-.533-.418-1.045-.852-1.557-1.286z" stroke="#EFA047" stroke-width="2" mask="url(#f)"/><path d="M454.509 300.24c4.529 3.263 5.557 9.579 2.295 14.108-3.261 4.53-9.577 5.557-14.107 2.295l-5.906 8.202c9.059 6.523 21.69 4.468 28.215-4.591 6.523-9.06 4.468-21.691-4.591-28.215l-5.906 8.202z" stroke="#292D78" mask="url(#f)"/><path stroke="#286AA6" mask="url(#f)" d="M689.669 466.543l20.213 20.212V446.33l-20.213 20.213M574 533.493l20.214 20.213h-40.426L574 533.493M611.441 381.12h-28.586l28.586-28.586v28.586"/><path d="M521.017 508.599l-.354-.354" stroke="#71498C" mask="url(#f)"/><path d="M519.941 507.523L501.518 489.1" stroke="#71498C" stroke-dasharray="1.022,1.022" mask="url(#f)"/><path stroke="#71498C" mask="url(#f)" d="M501.157 488.74l-.354-.355h.5"/><path d="M502.315 488.386h37.91" stroke="#71498C" stroke-dasharray="1.011,1.011" mask="url(#f)"/><path stroke="#71498C" mask="url(#f)" d="M540.73 488.386h.5l-.354.354"/><path d="M540.154 489.462l-18.422 18.422" stroke="#71498C" stroke-dasharray="1.022,1.022" mask="url(#f)"/><path d="M521.37 508.245l-.354.354" stroke="#71498C" mask="url(#f)"/><path stroke="#00A3DB" stroke-width="1.5" mask="url(#f)" d="M638.472 444.279h10.107v-20.213h-10.107z"/><path stroke="#EFA047" stroke-width="2" mask="url(#f)" d="M765.185 552.509h10.107v-20.213h-10.107z"/><path d="M697.423 371.005c0 5.582-4.525 10.106-10.106 10.106-5.582 0-10.107-4.524-10.107-10.106h-10.107c0 11.163 9.05 20.212 20.214 20.212 11.163 0 20.213-9.05 20.213-20.212h-10.107z" stroke="#286AA6" mask="url(#f)"/><path d="M613.72 477.32c-5.583 0-10.108 4.524-10.108 10.106s4.525 10.107 10.107 10.107v-20.214z" stroke="#EFA047" stroke-width="2" mask="url(#f)"/><path d="M479.748 549.941c0 5.582-4.525 10.107-10.107 10.107-5.581 0-10.106-4.525-10.106-10.107 0-5.582 4.525-10.107 10.106-10.107 5.582 0 10.107 4.525 10.107 10.107z" stroke="#71498C" stroke-dasharray="0.992,0.992" mask="url(#f)"/><path d="M567.946 428.944c0 5.582-4.525 10.107-10.107 10.107-5.58 0-10.106-4.525-10.106-10.107 0-5.582 4.525-10.107 10.106-10.107 5.582 0 10.107 4.525 10.107 10.107z" stroke="#292D78" mask="url(#f)"/><path d="M751.237 426.643c0 5.582-4.525 10.107-10.107 10.107-5.58 0-10.106-4.525-10.106-10.107 0-5.582 4.525-10.107 10.106-10.107 5.582 0 10.107 4.525 10.107 10.107z" stroke="#E0542F" mask="url(#f)"/><path d="M658.894 309.375c-6.47-5.312-16.024-4.372-21.336 2.1-5.312 6.471-4.373 16.023 2.1 21.335l19.236-23.435z" stroke="#EFA047" stroke-width="2" mask="url(#f)"/><path d="M699.08 538.747l.353-.354a16.708 16.708 0 0 0-.36-.347" stroke="#71498C" mask="url(#f)"/><path d="M698.328 537.391c-5.955-4.897-14.77-4.562-20.334 1.002-5.684 5.684-5.911 14.758-.682 20.712" stroke="#71498C" stroke-dasharray="0.992,0.992" mask="url(#f)"/><path d="M677.646 559.474c.114.12.229.24.348.359l.353-.353" stroke="#71498C" mask="url(#f)"/><path d="M679.062 558.765l19.66-19.66" stroke="#71498C" stroke-dasharray="1.011,1.011" mask="url(#f)"/><path stroke="#71498C" mask="url(#f)" d="M390.213 444.104h-.5v-.5"/><path d="M389.713 442.593V414.79" stroke="#71498C" stroke-dasharray="1.011,1.011" mask="url(#f)"/><path stroke="#71498C" mask="url(#f)" d="M389.713 414.284v-.5h.5"/><path d="M391.224 413.784h17.697" stroke="#71498C" stroke-dasharray="1.011,1.011" mask="url(#f)"/><path stroke="#71498C" mask="url(#f)" d="M409.426 413.784h.5v.5"/><path d="M409.926 415.296v27.803" stroke="#71498C" stroke-dasharray="1.011,1.011" mask="url(#f)"/><path stroke="#71498C" mask="url(#f)" d="M409.926 443.604v.5h-.5"/><path d="M408.415 444.104H390.72" stroke="#71498C" stroke-dasharray="1.011,1.011" mask="url(#f)"/><path stroke="#00A3DB" stroke-width="1.5" mask="url(#f)" d="M420.667 502.374l-14.293-14.293 14.293-14.293 14.293 14.293zM543.681 324.48h20.213v-20.213h-20.213z"/><path stroke="#71498C" mask="url(#f)" d="M501.613 384.04h-.5v-.5"/><path d="M501.113 382.529v-17.696" stroke="#71498C" stroke-dasharray="1.011,1.011" mask="url(#f)"/><path stroke="#71498C" mask="url(#f)" d="M501.113 364.327v-.5h.5"/><path d="M502.624 363.827h7.59" stroke="#71498C" stroke-dasharray="1.012,1.012" mask="url(#f)"/><path stroke="#71498C" mask="url(#f)" d="M510.72 363.827h.5v.5"/><path d="M511.22 365.338v17.696" stroke="#71498C" stroke-dasharray="1.011,1.011" mask="url(#f)"/><path stroke="#71498C" mask="url(#f)" d="M511.22 383.54v.5h-.5"/><path d="M509.707 384.04h-7.589" stroke="#71498C" stroke-dasharray="1.012,1.012" mask="url(#f)"/><path stroke="#71498C" mask="url(#f)" d="M738.013 339.274l-.355.354-.352-.354"/><path d="M736.59 338.559l-12.513-12.513" stroke="#71498C" stroke-dasharray="1.011,1.011" mask="url(#f)"/><path stroke="#71498C" mask="url(#f)" d="M723.72 325.688l-.354-.354.354-.353"/><path d="M724.435 324.266l12.513-12.513" stroke="#71498C" stroke-dasharray="1.011,1.011" mask="url(#f)"/><path stroke="#71498C" mask="url(#f)" d="M737.306 311.395l.353-.354.354.354"/><path d="M738.728 312.11l12.513 12.513" stroke="#71498C" stroke-dasharray="1.011,1.011" mask="url(#f)"/><path stroke="#71498C" mask="url(#f)" d="M751.598 324.98l.354.355-.354.353"/><path d="M750.883 326.403l-12.513 12.513" stroke="#71498C" stroke-dasharray="1.011,1.011" mask="url(#f)"/><path d="M416.074 363.124a51.827 51.827 0 0 1-13.518-26.818 18.92 18.92 0 0 0-9.813 5.354c-7.331 7.517-7.18 19.555.338 26.886 5.294 5.163 12.825 6.598 19.38 4.38a18.913 18.913 0 0 0 7.505-4.718c.25-.256.469-.53.702-.796a52.34 52.34 0 0 1-3.184-2.842 51.82 51.82 0 0 1-1.41-1.446zM49.838 417.985a51.84 51.84 0 0 1-17.665 24.288 18.919 18.919 0 0 0 9.25 6.277c10.038 3.081 20.673-2.56 23.754-12.598 2.17-7.069 0-14.423-4.97-19.237a18.909 18.909 0 0 0-7.628-4.517c-.342-.104-.686-.174-1.029-.259a52.59 52.59 0 0 1-1.07 4.131c-.2.648-.42 1.281-.642 1.915z" stroke="#286AA6" mask="url(#f)"/><path d="M351.054 480.136l-.354.354c.12.118.24.233.363.344" stroke="#71498C" mask="url(#f)"/><path d="M351.83 481.464c3.956 2.94 9.574 2.615 13.163-.975 3.712-3.712 3.933-9.593.663-13.563" stroke="#71498C" stroke-dasharray="0.992,0.992" mask="url(#f)"/><path d="M365.339 466.558a10.698 10.698 0 0 0-.345-.361l-.353.353" stroke="#71498C" mask="url(#f)"/><path d="M363.925 467.265l-12.513 12.513" stroke="#71498C" stroke-dasharray="1.011,1.011" mask="url(#f)"/><path d="M43.304 328.64c-3.947-3.946-3.947-10.345 0-14.292 3.947-3.947 10.346-3.947 14.293 0l7.146-7.146c-7.893-7.894-20.692-7.894-28.586 0-7.893 7.894-7.893 20.692 0 28.586l7.147-7.147zM278.874 482.983l20.213 20.213V462.77l-20.213 20.213" stroke="#286AA6" mask="url(#f)"/><path stroke="#292D78" mask="url(#f)" d="M158.064 536.534l20.213 20.213H137.85l20.213-20.212"/><path stroke="#286AA6" mask="url(#f)" d="M245.941 328.666h-28.586l28.586-28.586v28.586"/><path d="M97.72 508.599l-.355-.354" stroke="#71498C" mask="url(#f)"/><path d="M96.643 507.523L78.22 489.1" stroke="#71498C" stroke-dasharray="1.022,1.022" mask="url(#f)"/><path stroke="#71498C" mask="url(#f)" d="M77.86 488.74l-.354-.355h.5"/><path d="M79.017 488.386h37.91" stroke="#71498C" stroke-dasharray="1.011,1.011" mask="url(#f)"/><path stroke="#71498C" mask="url(#f)" d="M117.433 488.386h.5l-.355.354"/><path d="M116.856 489.462l-18.421 18.422" stroke="#71498C" stroke-dasharray="1.022,1.022" mask="url(#f)"/><path d="M98.073 508.245l-.354.354M225.472 444.28h-.5v-.5" stroke="#71498C" mask="url(#f)"/><path d="M224.972 442.768v-17.696" stroke="#71498C" stroke-dasharray="1.011,1.011" mask="url(#f)"/><path stroke="#71498C" mask="url(#f)" d="M224.972 424.566v-.5h.5"/><path d="M226.484 424.066h7.59" stroke="#71498C" stroke-dasharray="1.012,1.012" mask="url(#f)"/><path stroke="#71498C" mask="url(#f)" d="M234.579 424.066h.5v.5"/><path d="M235.079 425.577v17.696" stroke="#71498C" stroke-dasharray="1.011,1.011" mask="url(#f)"/><path stroke="#71498C" mask="url(#f)" d="M235.079 443.78v.5h-.5"/><path d="M233.567 444.28h-7.589" stroke="#71498C" stroke-dasharray="1.012,1.012" mask="url(#f)"/><path stroke="#EFA047" stroke-width="2" mask="url(#f)" d="M350.701 550.932h10.107v-20.213h-10.107z"/><path d="M283.923 371.005c0 5.582-4.525 10.106-10.106 10.106-5.582 0-10.107-4.524-10.107-10.106h-10.107c0 11.163 9.05 20.212 20.214 20.212 11.163 0 20.213-9.05 20.213-20.212h-10.107z" stroke="#292D78" mask="url(#f)"/><path d="M200.22 477.32c-5.583 0-10.108 4.524-10.108 10.106s4.525 10.107 10.107 10.107v-20.214zM56.141 549.941c0 5.582-4.525 10.107-10.107 10.107-5.58 0-10.106-4.525-10.106-10.107 0-5.582 4.525-10.107 10.106-10.107 5.582 0 10.107 4.525 10.107 10.107z" stroke="#EFA047" stroke-width="2" mask="url(#f)"/><path d="M154.446 428.944c0 5.582-4.525 10.107-10.107 10.107-5.58 0-10.106-4.525-10.106-10.107 0-5.582 4.525-10.107 10.106-10.107 5.582 0 10.107 4.525 10.107 10.107zM337.737 426.643c0 5.582-4.525 10.107-10.107 10.107-5.58 0-10.106-4.525-10.106-10.107 0-5.582 4.525-10.107 10.106-10.107 5.582 0 10.107 4.525 10.107 10.107z" stroke="#292D78" mask="url(#f)"/><path d="M186.777 384.077c5.92-5.92 5.92-15.52 0-21.44-5.92-5.92-15.52-5.92-21.44 0l21.44 21.44z" stroke="#EFA047" stroke-width="2" mask="url(#f)"/><path d="M270.455 538.747l.354-.354a16.708 16.708 0 0 0-.36-.347" stroke="#71498C" mask="url(#f)"/><path d="M269.704 537.391c-5.955-4.897-14.77-4.562-20.335 1.002-5.683 5.684-5.91 14.758-.682 20.712" stroke="#71498C" stroke-dasharray="0.992,0.992" mask="url(#f)"/><path d="M249.022 559.474c.114.12.23.24.348.359l.353-.353" stroke="#71498C" mask="url(#f)"/><path d="M250.438 558.765l19.66-19.66" stroke="#71498C" stroke-dasharray="1.011,1.011" mask="url(#f)"/><path stroke="#71498C" mask="url(#f)" d="M144.34 326.258v.5h-.5"/><path d="M142.829 326.758h-17.697" stroke="#71498C" stroke-dasharray="1.011,1.011" mask="url(#f)"/><path stroke="#71498C" mask="url(#f)" d="M124.627 326.758h-.5v-.5"/><path d="M124.127 325.247v-17.696" stroke="#71498C" stroke-dasharray="1.011,1.011" mask="url(#f)"/><path stroke="#71498C" mask="url(#f)" d="M124.127 307.045v-.5h.5"/><path d="M125.638 306.545h17.697" stroke="#71498C" stroke-dasharray="1.011,1.011" mask="url(#f)"/><path stroke="#71498C" mask="url(#f)" d="M143.84 306.545h.5v.5"/><path d="M144.34 308.056v17.696" stroke="#71498C" stroke-dasharray="1.011,1.011" mask="url(#f)"/><path stroke="#00A3DB" stroke-width="1.5" mask="url(#f)" d="M87.613 384.04H97.72v-20.213H87.613z"/><path stroke="#71498C" mask="url(#f)" d="M324.512 339.274l-.353.354-.353-.354"/><path d="M323.09 338.559l-12.513-12.513" stroke="#71498C" stroke-dasharray="1.011,1.011" mask="url(#f)"/><path stroke="#71498C" mask="url(#f)" d="M310.22 325.688l-.354-.354.354-.353"/><path d="M310.935 324.266l12.513-12.513" stroke="#71498C" stroke-dasharray="1.011,1.011" mask="url(#f)"/><path stroke="#71498C" mask="url(#f)" d="M323.805 311.395l.354-.354.353.354"/><path d="M325.228 312.11l12.513 12.513" stroke="#71498C" stroke-dasharray="1.011,1.011" mask="url(#f)"/><path stroke="#71498C" mask="url(#f)" d="M338.099 324.98l.353.355-.353.353"/><path d="M337.383 326.403l-12.513 12.513" stroke="#71498C" stroke-dasharray="1.011,1.011" mask="url(#f)"/></g></g></svg>