<svg width="58" height="32" viewBox="0 0 58 32" xmlns="http://www.w3.org/2000/svg"><title>39389071-8D6C-4A92-935D-98EC5FAA557A</title><g fill="none" fill-rule="evenodd"><path d="M0 0h58v32H0z"/><path d="M24.624 9.235L22.298 22.77h3.718l2.327-13.534h-3.72zm14.88.333C38.767 9.294 37.613 9 36.171 9c-3.674 0-6.263 1.836-6.285 4.466-.02 1.945 1.848 3.03 3.258 3.677 1.448.664 1.935 1.087 1.928 1.679-.01.907-1.156 1.322-2.225 1.322-1.489 0-2.28-.205-3.5-.71l-.48-.216-.522 3.03c.869.378 2.475.705 4.143.722 3.909 0 6.447-1.815 6.476-4.624.014-1.54-.977-2.711-3.123-3.677-1.3-.626-2.096-1.044-2.087-1.678 0-.563.673-1.164 2.13-1.164a6.908 6.908 0 0 1 2.783.518l.333.157.504-2.934zm9.537-.32h-2.874c-.89 0-1.556.241-1.947 1.122l-5.524 12.404h3.905s.64-1.668.784-2.034l4.762.006c.112.473.452 2.028.452 2.028h3.452L49.04 9.248zm-29.862-.003l-3.64 9.23-.388-1.876c-.678-2.163-2.79-4.505-5.151-5.678l3.329 11.837 3.935-.005L23.12 9.245h-3.94zm25.276 8.726c.307-.78 1.481-3.783 1.481-3.783-.022.036.306-.783.494-1.292l.251 1.167.861 3.908h-3.087z" fill="#FFF"/><path d="M12.044 9H6.048L6 9.282c4.666 1.12 7.753 3.827 9.034 7.08l-1.304-6.22c-.225-.856-.878-1.112-1.686-1.142" fill="#FC9F3A"/></g></svg>