<svg width="87" height="80" viewBox="0 0 87 80" xmlns="http://www.w3.org/2000/svg"><title>48D06162-CF7B-48CF-B179-5F78A30E86D9</title><g fill="none" fill-rule="evenodd"><path fill="#E0542F" d="M43.64 79.007l20.213-20.213H23.427z"/><path fill="#EFA047" d="M10.836 43.067h20.213V32.96H10.836z"/><path d="M10.836 25.55c0-5.583 4.525-10.108 10.106-10.108 5.582 0 10.107 4.525 10.107 10.107h10.107c0-11.163-9.05-20.213-20.214-20.213C9.779 5.336.729 14.386.729 25.55h10.107z" fill="#286AA6"/><path fill="#00A3DB" d="M56.668 43.067h20.213V32.96H56.668z"/><path d="M56.668 20.59c0-5.582 4.525-10.107 10.106-10.107 5.582 0 10.107 4.525 10.107 10.107h10.107c0-11.163-9.05-20.213-20.214-20.213C55.61.377 46.56 9.427 46.56 20.59h10.107z" fill="#E0542F"/></g></svg>