<svg width="86" height="86" viewBox="0 0 86 86" xmlns="http://www.w3.org/2000/svg"><title>6A16B11F-6EE8-4046-8D98-6AFF7E84AA93</title><g fill="none" fill-rule="evenodd"><path fill="#99C973" d="M0 86h86V0H0z"/><path d="M64 55.426c5.22 0 9.452-4.572 9.452-10.213C73.452 39.573 69.22 35 64 35v20.426z" fill="#292D78"/><path d="M64 51.426c5.22 0 9.452-4.572 9.452-10.213C73.452 35.573 69.22 31 64 31v20.426z" fill="#71498C"/><path d="M22.452 35C17.232 35 13 39.572 13 45.213c0 5.64 4.232 10.213 9.452 10.213V35z" fill="#292D78"/><path d="M22.452 31C17.232 31 13 35.573 13 41.213c0 5.64 4.232 10.213 9.452 10.213V31z" fill="#71498C"/><path fill="#286AA6" d="M22 56h42V35H22z"/><path fill="#00A3DB" d="M22 52h42V31H22z"/><path fill="#292D78" d="M47 38L33 52h28z"/><path fill="#E0542F" d="M66 45h4v-2h-4z"/><path fill="#99C973" d="M16 40h4v-2h-4z"/><path fill="#292D78" d="M17 42v4h2v-4z"/><path fill="#292D78" d="M20 43h-4v2h4z"/><path d="M33 41a3 3 0 1 1 0-6 3 3 0 0 1 0 6m35 0a2 2 0 1 1 0-4 2 2 0 0 1 0 4" fill="#FBCC21"/></g></svg>