<svg width="86" height="86" viewBox="0 0 86 86" xmlns="http://www.w3.org/2000/svg"><title>40FDE677-3ED1-4E8A-B804-F4F32825974E</title><g fill="none" fill-rule="evenodd"><path fill="#292D78" d="M0 86h86V0H0z"/><path d="M62.645 15.337a19.317 19.317 0 0 1 4.547 10.227 7.085 7.085 0 0 0 4.11-11.829 7.079 7.079 0 0 0-7.135-1.98 7.049 7.049 0 0 0-2.879 1.62c-.097.09-.184.188-.275.283.389.355.77.724 1.134 1.116.172.184.335.374.498.563" fill="#FBCC21"/><path fill="#71498C" d="M43.19 22l27.19 27.19H16"/><path fill="#286AA6" d="M23 68.978h39.956V49H23z"/><path d="M31.511 62.022a4.511 4.511 0 1 1 0-9.022 4.511 4.511 0 0 1 0 9.022" fill="#FBCC21"/><path fill="#00A3DB" d="M56.582 69.163V56H50v13.163z"/></g></svg>