<svg width="59" height="48" viewBox="0 0 59 48" xmlns="http://www.w3.org/2000/svg"><title>60A24698-B626-4AA4-928D-984631AE1E25</title><g fill="none" fill-rule="evenodd"><path d="M.239.315h58.522v47.37H.239z"/><path d="M14.71 41.744v-2.36c0-.905-.558-1.495-1.515-1.495-.478 0-.996.157-1.355.668-.28-.432-.678-.668-1.276-.668-.398 0-.797.118-1.116.55v-.472h-.837v3.777h.837V39.66c0-.669.359-.984.917-.984s.837.355.837.984v2.085h.837V39.66c0-.669.399-.984.917-.984.558 0 .837.355.837.984v2.085h.917zm12.398-3.777h-1.355v-1.14h-.837v1.14h-.758v.748h.758v1.73c0 .866.358 1.378 1.315 1.378.359 0 .758-.118 1.037-.275l-.24-.709a1.318 1.318 0 0 1-.717.197c-.399 0-.558-.236-.558-.63v-1.691h1.355v-.748zm7.096-.078a1.13 1.13 0 0 0-.997.55v-.472h-.837v3.777h.837V39.62c0-.63.28-.984.798-.984.16 0 .359.04.518.079l.24-.787c-.16-.04-.4-.04-.559-.04zm-10.724.393c-.398-.275-.956-.393-1.554-.393-.957 0-1.595.472-1.595 1.22 0 .629.478.983 1.316 1.1l.398.04c.439.079.678.197.678.394 0 .275-.319.472-.877.472a2.22 2.22 0 0 1-1.276-.394l-.398.63c.438.315 1.036.472 1.634.472 1.116 0 1.754-.512 1.754-1.22 0-.669-.518-1.023-1.315-1.14l-.4-.04c-.358-.04-.637-.118-.637-.354 0-.276.28-.433.718-.433.478 0 .956.197 1.196.315l.358-.669zm22.245-.393a1.13 1.13 0 0 0-.997.55v-.472h-.837v3.777h.837V39.62c0-.63.28-.984.798-.984.16 0 .358.04.518.079l.24-.787c-.16-.04-.4-.04-.559-.04zm-10.684 1.967c0 1.14.798 1.967 2.033 1.967.558 0 .957-.118 1.356-.433l-.399-.669c-.319.236-.638.354-.997.354-.677 0-1.156-.472-1.156-1.22 0-.707.479-1.18 1.156-1.219.36 0 .678.118.997.354l.399-.669c-.399-.314-.798-.432-1.356-.432-1.235 0-2.033.826-2.033 1.967zm7.734 0v-1.889h-.837v.472c-.28-.354-.678-.55-1.196-.55-1.076 0-1.914.826-1.914 1.967 0 1.14.838 1.967 1.914 1.967.558 0 .957-.197 1.196-.55v.471h.837v-1.888zm-3.07 0c0-.67.439-1.22 1.156-1.22.678 0 1.157.512 1.157 1.22 0 .669-.479 1.22-1.157 1.22-.717-.04-1.156-.551-1.156-1.22zM29.7 37.889c-1.116 0-1.913.786-1.913 1.967 0 1.18.797 1.967 1.953 1.967.558 0 1.116-.157 1.555-.512l-.399-.59c-.319.236-.717.394-1.116.394-.518 0-1.036-.236-1.156-.905h2.83v-.315c.04-1.22-.677-2.006-1.754-2.006zm0 .708c.519 0 .877.314.957.905h-1.993c.08-.512.438-.905 1.036-.905zm20.77 1.259v-3.384h-.837v1.967c-.28-.354-.678-.55-1.196-.55-1.077 0-1.914.826-1.914 1.967 0 1.14.837 1.967 1.914 1.967.558 0 .957-.197 1.196-.55v.471h.837v-1.888zm-3.07 0c0-.67.439-1.22 1.156-1.22.678 0 1.156.512 1.156 1.22 0 .669-.478 1.22-1.156 1.22-.717-.04-1.156-.551-1.156-1.22zm-27.985 0v-1.889h-.837v.472c-.279-.354-.678-.55-1.196-.55-1.076 0-1.913.826-1.913 1.967 0 1.14.837 1.967 1.913 1.967.558 0 .957-.197 1.196-.55v.471h.837v-1.888zm-3.11 0c0-.67.44-1.22 1.157-1.22.678 0 1.156.512 1.156 1.22 0 .669-.478 1.22-1.156 1.22-.718-.04-1.156-.551-1.156-1.22z" fill="#FFF"/><path d="M23.201 9.285h6.28s5.27 2.597 5.318 10.677c.05 8.08-5.319 11.768-5.319 11.768l-6.279-.176V9.285z" fill="#FFF" opacity=".7"/><path d="M23.999 20.42c0-4.525 2.152-8.538 5.461-11.135a14.383 14.383 0 0 0-8.85-3.03C12.677 6.256 6.26 12.59 6.26 20.42c0 7.83 6.418 14.164 14.351 14.164a14.38 14.38 0 0 0 8.85-3.03A14.077 14.077 0 0 1 24 20.42z" fill="#FFF"/><path d="M52.701 20.42c0 7.83-6.418 14.164-14.351 14.164a14.383 14.383 0 0 1-8.85-3.03c3.349-2.597 5.461-6.61 5.461-11.134 0-4.525-2.152-8.538-5.461-11.135a14.383 14.383 0 0 1 8.85-3.03c7.933 0 14.351 6.375 14.351 14.165z" fill="#FFF" opacity=".4"/></g></svg>