<svg width="24" height="24" viewBox="0 0 24 24" xmlns="http://www.w3.org/2000/svg"><title>1563CEB0-D41E-43A3-BFF3-E00891822174</title><g fill="none" fill-rule="evenodd"><path d="M0 0h23.944v23.942H0z"/><path d="M9.977 16.46l5.986-4.49-5.986-4.488v8.978zm1.995-14.465c-5.507 0-9.977 4.47-9.977 9.976 0 5.506 4.47 9.976 9.977 9.976 5.507 0 9.977-4.47 9.977-9.976 0-5.507-4.47-9.976-9.977-9.976zm0 17.956c-4.4 0-7.981-3.58-7.981-7.98s3.581-7.98 7.981-7.98 7.981 3.58 7.981 7.98-3.581 7.98-7.981 7.98z" fill="#FFF"/></g></svg>