<svg width="24" height="24" viewBox="0 0 24 24" xmlns="http://www.w3.org/2000/svg"><title>F934D119-B042-42ED-95A2-E57FB1D91648</title><g fill="none" fill-rule="evenodd"><path d="M0 15C0 6.716 6.716 0 15 0c8.284 0 15 6.716 15 15 0 8.284-6.716 15-15 15-8.284 0-15-6.716-15-15z" fill="#4C6C91"/><path d="M15.785 19.423s.288-.032.436-.188c.136-.143.131-.412.131-.412s-.018-1.26.578-1.445c.586-.183 1.34 1.217 2.14 1.756.604.407 1.063.318 1.063.318l2.137-.03s1.117-.067.587-.93c-.043-.07-.309-.638-1.588-1.804-1.34-1.22-1.16-1.023.453-3.135.983-1.286 1.376-2.07 1.253-2.407-.117-.32-.84-.235-.84-.235l-2.405.014s-.179-.024-.311.054c-.13.076-.213.253-.213.253s-.38.995-.888 1.842c-1.072 1.785-1.5 1.88-1.675 1.769-.408-.26-.306-1.039-.306-1.593 0-1.73.268-2.452-.52-2.638-.262-.062-.454-.103-1.123-.11-.859-.009-1.585.003-1.997.2-.273.132-.485.425-.356.442.16.02.52.095.71.35.247.33.238 1.069.238 1.069s.142 2.037-.33 2.29c-.325.173-.77-.18-1.725-1.8a14.94 14.94 0 0 1-.858-1.748s-.072-.17-.2-.263c-.153-.111-.369-.146-.369-.146l-2.285.015s-.344.009-.47.156c-.112.13-.009.399-.009.399s1.79 4.11 3.817 6.182c1.859 1.899 3.968 1.775 3.968 1.775h.957z" fill="#FFF"/></g></svg>