<svg width="564" height="304" viewBox="0 0 564 304" xmlns="http://www.w3.org/2000/svg"><title>9D7AF302-823D-443F-9600-DA9DD4F4E1DE</title><g fill="none" fill-rule="evenodd"><path d="M185.588 263h2.38v-19.6h-15.4V263h2.38v-17.36h10.64V263zm10.64 0v-7.532c.98.084 2.156.112 2.94.112 4.788 0 7.056-2.968 7.056-6.16 0-3.052-1.652-6.076-7.252-6.076-1.232 0-4.032.056-5.124.056V263h2.38zm2.968-17.416c3.108 0 4.508 1.484 4.508 3.808 0 2.464-1.736 3.948-4.62 3.948-.98 0-1.904-.056-2.856-.14v-7.56c.924-.028 2.184-.056 2.968-.056zm9.576 7.616c0 5.964 4.312 10.08 9.996 10.08s9.996-4.256 9.996-10.08c0-5.964-4.312-10.08-9.996-10.08-5.824 0-9.996 4.396-9.996 10.08zm2.52 0c0-4.564 3.22-7.84 7.476-7.84 4.2 0 7.476 3.276 7.476 7.84 0 4.424-2.996 7.84-7.476 7.84-4.2 0-7.476-3.388-7.476-7.84zm35.448 6.104c-1.344 1.092-3.136 1.736-5.012 1.736-4.536 0-7.644-3.164-7.644-7.84 0-4.648 3.024-7.84 7.28-7.84 2.044 0 3.556.504 4.844 1.456l1.092-1.792c-1.4-1.204-3.444-1.904-5.964-1.904-6.132 0-9.772 4.452-9.772 10.08 0 6.104 4.06 10.08 9.94 10.08 2.436 0 4.872-.84 6.188-2.184l-.952-1.792zm2.072-13.664h6.86V263h2.38v-17.36h6.86v-2.24h-16.1v2.24zm21.7 17.36v-7.532c.98.084 2.156.112 2.94.112 4.788 0 7.056-2.968 7.056-6.16 0-3.052-1.652-6.076-7.252-6.076-1.232 0-4.032.056-5.124.056V263h2.38zm2.968-17.416c3.108 0 4.508 1.484 4.508 3.808 0 2.464-1.736 3.948-4.62 3.948-.98 0-1.904-.056-2.856-.14v-7.56c.924-.028 2.184-.056 2.968-.056zM280.536 263h2.408l2.492-5.936h8.932l2.52 5.936h2.548l-8.428-19.712h-2.044L280.536 263zm9.38-16.548l3.528 8.372h-7.056l3.528-8.372zM315.956 263h2.38v-19.6h-2.38v8.484h-10.78V243.4h-2.38V263h2.38v-8.876h10.78V263zm21.896-3.696c-1.344 1.092-3.136 1.736-5.012 1.736-4.536 0-7.644-3.164-7.644-7.84 0-4.648 3.024-7.84 7.28-7.84 2.044 0 3.556.504 4.844 1.456l1.092-1.792c-1.4-1.204-3.444-1.904-5.964-1.904-6.132 0-9.772 4.452-9.772 10.08 0 6.104 4.06 10.08 9.94 10.08 2.436 0 4.872-.84 6.188-2.184l-.952-1.792zm2.072-13.664h6.86V263h2.38v-17.36h6.86v-2.24h-16.1v2.24zm19.32 17.332c1.148.056 3.528.112 5.264.112 4.06 0 7.112-1.708 7.112-5.684 0-2.688-1.624-4.256-4.06-4.648v-.056c1.876-.616 3.36-2.072 3.36-4.536 0-2.716-1.624-4.844-6.3-4.844-1.82 0-4.284.084-5.376.112v19.544zm5.544-8.904c2.828 0 4.452 1.12 4.452 3.192 0 2.408-1.708 3.584-4.592 3.584-1.12 0-2.38-.056-3.024-.112v-6.664h3.164zm-.224-8.512c2.604 0 3.976 1.092 3.976 3.136 0 2.128-1.708 3.276-3.78 3.276h-3.136v-6.328c.7-.028 1.904-.084 2.94-.084zm10.416 7.644c0 5.964 4.312 10.08 9.996 10.08s9.996-4.256 9.996-10.08c0-5.964-4.312-10.08-9.996-10.08-5.824 0-9.996 4.396-9.996 10.08zm2.52 0c0-4.564 3.22-7.84 7.476-7.84 4.2 0 7.476 3.276 7.476 7.84 0 4.424-2.996 7.84-7.476 7.84-4.2 0-7.476-3.388-7.476-7.84zM224.43 230l6-7.5v7.5h1.04v-9h-1.04l-6 7.5V221h-1.04v9h1.04zm17.08 0h1.04v-9h-1.04v3.94h-5.84V221h-1.04v9h1.04v-4.08h5.84V230zm11.54-9h-1.34l-4.36 4.36 4.66 4.64h1.4l-4.8-4.7 4.44-4.3zm-7.34 9h1.04v-9h-1.04v9zm15.94 0h1.04v-9h-5.82l-.14 2.8c-.28 4.72-1.72 5.28-2.32 5.26l.08 1.02c1.4 0 2.86-.78 3.24-6.08l.12-1.96h3.8V230zm4.2 0h1.1v-4.08h2.26c.18 2.48 1.96 4.26 4.52 4.26 2.7 0 4.58-1.98 4.58-4.68 0-2.7-1.86-4.68-4.58-4.68-2.5 0-4.24 1.68-4.5 4.06h-2.28V221h-1.1v9zm4.52-4.5c0-2.16 1.4-3.64 3.4-3.64 2.02 0 3.38 1.5 3.38 3.64 0 2.16-1.38 3.64-3.38 3.64-1.98 0-3.4-1.46-3.4-3.64zm13.26 4.68c2.16 0 3.72-1 3.72-2.68 0-1.04-.66-2-1.96-2.12v-.04c1.16-.42 1.62-1.28 1.62-2.16 0-1.46-1.14-2.36-3.24-2.36-1.34 0-2.64.42-3.38 1.18l.42.8c.66-.54 1.52-1 2.82-1 1.38 0 2.28.54 2.28 1.56 0 .92-.82 1.64-1.84 1.64h-1.42v.86h1.52c1.28 0 2.08.56 2.08 1.5 0 1.16-1.14 1.84-2.78 1.84-.84 0-2.08-.32-2.84-1.02l-.54.8c.6.72 2.34 1.2 3.54 1.2zm7.42-.18l6-7.5v7.5h1.04v-9h-1.04l-6 7.5V221h-1.04v9h1.04zm10.2 0c.82 0 1.82.06 2.94.06 2.68 0 4.02-.9 4.02-2.54 0-1.18-.62-1.92-2.16-2.16v-.04c1.18-.18 1.82-1.08 1.82-2.06 0-1.64-1.28-2.32-3.72-2.32-1.22 0-2.12.06-2.9.06v9zm3.2-4.14c1.8 0 2.66.5 2.66 1.56 0 1.14-.98 1.66-2.8 1.66-.82 0-1.44-.02-2.02-.04v-3.18h2.16zm-.18-3.94c1.36 0 2.5.3 2.5 1.5 0 .96-.8 1.58-2.1 1.58h-2.38v-3.04c.5-.02 1.12-.04 1.98-.04zm13.48 8.08h1.04v-9h-1.04v3.94h-5.84V221h-1.04v9h1.04v-4.08h5.84V230zm3.56-4.5c0 2.7 1.92 4.68 4.72 4.68s4.72-1.98 4.72-4.68c0-2.7-1.92-4.68-4.72-4.68s-4.72 1.98-4.72 4.68zm1.1 0c0-2.18 1.54-3.7 3.62-3.7 2.12 0 3.62 1.54 3.62 3.7 0 2.18-1.5 3.7-3.62 3.7-2.1 0-3.62-1.54-3.62-3.7zm18 2.6c-.62.64-1.7 1.1-2.92 1.1-2.16 0-3.6-1.32-3.68-3.48h7.42c.04-.24.06-.5.06-.84 0-2.46-1.76-4.06-4.08-4.06-2.96 0-4.56 2.06-4.56 4.68 0 2.84 1.94 4.68 4.78 4.68 1.2 0 2.5-.42 3.32-1.28l-.34-.8zm-3.3-6.3c1.88 0 3.08 1.16 3.12 3.06h-6.48c.18-1.76 1.36-3.06 3.36-3.06z" fill="#71498C"/><path d="M360.358 119.122c0 43.209-35.064 78.237-78.318 78.237s-78.318-35.028-78.318-78.237c0-43.209 35.064-78.236 78.318-78.236s78.318 35.027 78.318 78.236" fill="#E0542F"/><path d="M204.205 125.362a78.906 78.906 0 0 1-.283-6.4c0-1.018.039-2.025.077-3.032a28.449 28.449 0 0 0-14.336 6.39 28.44 28.44 0 0 0 12.95 3.123c.537 0 1.061-.052 1.592-.08" fill="#00A3DB"/><path d="M203.999 115.93a77.765 77.765 0 0 1 14.671-42.64 28.46 28.46 0 0 0-16.057-4.936c-15.78 0-28.574 12.78-28.574 28.544 0 11.103 6.358 20.702 15.624 25.422a28.44 28.44 0 0 0 12.95 3.123c.537 0 1.062-.052 1.592-.08a78.906 78.906 0 0 1-.283-6.402c0-1.017.04-2.024.077-3.03" fill="#286AA6"/><path d="M203.999 115.93a78.035 78.035 0 0 0-.077 3.031c0 2.158.112 4.289.283 6.402a28.445 28.445 0 0 0 16.795-6.63 28.444 28.444 0 0 0-12.95-3.122c-1.38 0-2.724.131-4.051.32" fill="#71498C"/><path d="M221 118.733a28.44 28.44 0 0 0-12.95-3.122c-1.38 0-2.724.13-4.051.32-.038 1.007-.077 2.014-.077 3.03 0 2.157.111 4.288.283 6.402a77.824 77.824 0 0 0 17.855 43.655c8.687-4.896 14.564-14.188 14.564-24.863 0-11.102-6.359-20.701-15.625-25.422" fill="#EFA047"/><path d="M360.558 68.354c-5.572 0-10.753 1.618-15.149 4.373a77.775 77.775 0 0 1 15.072 43.212c.04 1.004.077 2.008.077 3.022 0 2.18-.113 4.333-.288 6.467.097.001.191.015.288.015 4.977 0 9.654-1.276 13.73-3.511 8.845-4.852 14.845-14.241 14.845-25.033 0-15.765-12.794-28.545-28.575-28.545" fill="#71498C"/><path d="M374.287 121.932a28.437 28.437 0 0 0-13.805-5.994c.038 1.005.076 2.01.076 3.023 0 2.18-.113 4.332-.288 6.467-1.355 16.524-7.833 31.595-17.868 43.612a28.444 28.444 0 0 0 13.973 3.66c15.781 0 28.575-12.78 28.575-28.544 0-8.987-4.166-16.992-10.663-22.224" fill="#00A3DB"/><path d="M360.482 115.939c-1.345-.194-2.709-.328-4.107-.328a28.456 28.456 0 0 0-13.73 3.511c-8.845 4.852-14.845 14.24-14.845 25.033 0 10.69 5.893 19.995 14.602 24.886 10.035-12.018 16.513-27.088 17.869-43.612a79.09 79.09 0 0 0 .288-6.468c0-1.014-.04-2.018-.077-3.022" fill="#EFA047"/><path d="M360.482 115.939a77.77 77.77 0 0 0-15.073-43.213c-8.054 5.048-13.425 13.974-13.425 24.172 0 8.986 4.165 16.991 10.662 22.224a28.456 28.456 0 0 0 17.625 6.307 79.09 79.09 0 0 0 .288-6.468c0-1.014-.04-2.018-.077-3.022" fill="#EFA047"/><path d="M412.917 130.379c-6.312 0-11.43 5.111-11.43 11.418 0 6.305 5.118 11.417 11.43 11.417v-22.835z" fill="#71498C"/><path d="M412.917 153.214c-6.312 0-11.43-5.112-11.43-11.417 0-6.307 5.118-11.418 11.43-11.418V118.96c-12.624 0-22.859 10.224-22.859 22.836 0 12.611 10.235 22.835 22.86 22.835v-11.418z" fill="#E0542F"/><path fill="#00A3DB" d="M296.134 146.268l22.86 22.836v-45.671z"/><path fill="#292D78" d="M296.134 146.268l22.86 22.835h-45.719z"/><path fill="#71498C" d="M296.134 146.268l-22.859 22.836v-45.671z"/><path fill="#292D78" d="M284.705 115.375h22.859V92.54h-22.859z"/><path fill="#71498C" d="M307.555 92.54h11.43V69.704h-11.43z"/><path fill="#286AA6" d="M284.705 92.54h22.859V69.704h-22.859z"/><path fill="#00A3DB" d="M273.231 92.54h11.43V69.704h-11.43z"/><path d="M263.771 103.957c-6.312 0-11.43-5.111-11.43-11.417s5.118-11.418 11.43-11.418V69.704c-12.624 0-22.859 10.224-22.859 22.836 0 12.612 10.235 22.836 22.86 22.836v-11.419z" fill="#292D78"/><path d="M263.771 81.122c-6.312 0-11.43 5.112-11.43 11.418 0 6.306 5.118 11.417 11.43 11.417V81.122z" fill="#71498C"/><path d="M263.41 134.91c-6.312 0-11.43 5.112-11.43 11.419 0 6.305 5.118 11.417 11.43 11.417V134.91z" fill="#EFA047"/><path d="M263.41 157.746c-6.312 0-11.43-5.112-11.43-11.417 0-6.307 5.118-11.418 11.43-11.418v-11.419c-12.624 0-22.86 10.225-22.86 22.837 0 12.611 10.236 22.835 22.86 22.835v-11.418z" fill="#71498C"/><path d="M368.182 144.634c0 6.305-5.117 11.418-11.43 11.418s-11.43-5.113-11.43-11.418c0-6.306 5.117-11.419 11.43-11.419s11.43 5.113 11.43 11.419m-7.7-28.695c-1.345-.194-2.709-.328-4.107-.328a28.456 28.456 0 0 0-13.73 3.511 28.456 28.456 0 0 0 17.626 6.307 79.07 79.07 0 0 0 .288-6.468c0-1.014-.04-2.018-.077-3.022" fill="#292D78"/><path d="M360.558 118.96c0 2.18-.113 4.334-.288 6.468.097.001.191.014.288.014 4.977 0 9.654-1.275 13.73-3.51a28.435 28.435 0 0 0-13.807-5.993c.04 1.004.077 2.008.077 3.022" fill="#286AA6"/><path d="M203.999 115.93a78.035 78.035 0 0 0-.077 3.031c0 2.158.112 4.289.283 6.402a28.445 28.445 0 0 0 16.795-6.63 28.444 28.444 0 0 0-12.95-3.122c-1.38 0-2.724.131-4.051.32" fill="#71498C"/><path fill="#292D78" d="M154.064 146.268l-22.86 22.835h45.719z"/><path fill="#00A3DB" d="M154.064 146.268l-22.86-22.835h45.719z"/><path d="M204.205 125.362a78.906 78.906 0 0 1-.283-6.4c0-1.018.039-2.025.077-3.032a28.449 28.449 0 0 0-14.336 6.39c-6.224 5.237-10.188 13.07-10.188 21.836 0 15.764 12.794 28.543 28.575 28.543 5.094 0 9.868-1.346 14.009-3.681a77.825 77.825 0 0 1-17.854-43.656" fill="#292D78"/><path d="M204.205 125.362a78.906 78.906 0 0 1-.283-6.4c0-1.018.039-2.025.077-3.032a28.449 28.449 0 0 0-14.336 6.39 28.44 28.44 0 0 0 12.95 3.123c.537 0 1.061-.052 1.592-.08" fill="#00A3DB"/><path fill="#286AA6" d="M154.064 146.268l-22.86 22.836v-45.671z"/><path d="M213.881 97.297c0 6.306-5.116 11.419-11.43 11.419-6.312 0-11.429-5.113-11.429-11.419 0-6.305 5.117-11.418 11.43-11.418s11.43 5.113 11.43 11.418" fill="#E0542F"/><path d="M208.05 115.61a28.44 28.44 0 0 1 12.95 3.123c6.224-5.235 10.186-13.07 10.186-21.835 0-9.816-4.962-18.471-12.516-23.608A77.765 77.765 0 0 0 204 115.93c1.327-.188 2.672-.32 4.05-.32m-53.986-11.153c9.469 0 17.144-7.668 17.144-17.126 0-9.46-7.675-17.127-17.144-17.127v34.253z" fill="#EFA047"/><path fill="#00A3DB" d="M131.205 115.875h22.86v-11.418h-22.86z"/><path fill="#71498C" d="M131.204 104.457h22.859V70.203h-22.859z"/><path fill="#EFA047" d="M99.576 115.375h22.858V92.54H99.576z"/><path fill="#71498C" d="M99.576 92.54h22.858V69.704H99.576z"/><path fill="#00A3DB" d="M88.146 92.54h11.43V69.704h-11.43z"/><path fill="#286AA6" d="M65.287 92.54h22.859V69.704h-22.86z"/><path fill="#00A3DB" d="M65.287 115.375h22.859V92.54h-22.86z"/></g></svg>