<?xml version="1.0" encoding="utf-8"?><svg width="1597" height="1612" viewBox="0 0 1597 1612" xmlns="http://www.w3.org/2000/svg" xmlns:xlink="http://www.w3.org/1999/xlink"><svg width="87" height="80" viewBox="0 0 87 80" id="border-section--face-1"><title>48D06162-CF7B-48CF-B179-5F78A30E86D9</title><g fill="none" fill-rule="evenodd"><path fill="#E0542F" d="M43.64 79.007l20.213-20.213H23.427z"/><path fill="#EFA047" d="M10.836 43.067h20.213V32.96H10.836z"/><path d="M10.836 25.55c0-5.583 4.525-10.108 10.106-10.108 5.582 0 10.107 4.525 10.107 10.107h10.107c0-11.163-9.05-20.213-20.214-20.213C9.779 5.336.729 14.386.729 25.55h10.107z" fill="#286AA6"/><path fill="#00A3DB" d="M56.668 43.067h20.213V32.96H56.668z"/><path d="M56.668 20.59c0-5.582 4.525-10.107 10.106-10.107 5.582 0 10.107 4.525 10.107 10.107h10.107c0-11.163-9.05-20.213-20.214-20.213C55.61.377 46.56 9.427 46.56 20.59h10.107z" fill="#E0542F"/></g></svg><svg width="104" height="84" viewBox="0 0 104 84" id="border-section--face-3" y="80"><title>9647E2AC-DD3A-4858-BC2E-5DCF14460559</title><g fill="none" fill-rule="evenodd"><path d="M64.407 59.446a51.832 51.832 0 0 1-30.03.351 18.915 18.915 0 0 0 .494 11.167c3.53 9.89 14.407 15.046 24.296 11.518C66.132 79.996 70.733 73.863 71.621 67c.375-2.882.108-5.89-.936-8.815-.12-.337-.27-.654-.407-.98a52.535 52.535 0 0 1-3.953 1.611c-.636.227-1.278.43-1.918.63z" fill="#E0542F"/><path fill="#FBCC21" d="M72.754 48.101h20.213V37.994H72.754z"/><path d="M72.754 35.731c0-5.582 4.525-10.107 10.106-10.107 5.582 0 10.107 4.525 10.107 10.107h10.107c0-11.163-9.05-20.213-20.214-20.213-11.163 0-20.213 9.05-20.213 20.213h10.107z" fill="#71498C"/><path d="M10.827 20.753c0-5.582 4.525-10.107 10.106-10.107 5.582 0 10.107 4.525 10.107 10.107h10.107C41.147 9.59 32.097.54 20.933.54 9.77.54.72 9.59.72 20.753h10.107z" fill="#EFA047"/><path d="M33.238 37.053c.456 5.564-3.684 10.443-9.247 10.899-5.563.456-10.443-3.684-10.899-9.247-.456-5.563 3.684-10.442 9.248-10.898 5.563-.456 10.442 3.684 10.898 9.247" fill="#FBCC21"/></g></svg><svg width="24" height="24" viewBox="0 0 24 24" style="background:0 0" id="btn--ic-add-white-48-px" y="164"><title>4D2ED303-9F47-454E-B391-5AD47F201C8C</title><g fill="none" fill-rule="evenodd"><path d="M0 0h24v24H0z"/><path fill="#FFF" d="M5 11h14v2H5z"/><path fill="#FFF" d="M13 5v14h-2V5z"/></g></svg><svg width="24" height="24" viewBox="0 0 24 24" id="btn--ic-play" y="188"><title>1563CEB0-D41E-43A3-BFF3-E00891822174</title><g fill="none" fill-rule="evenodd"><path d="M0 0h23.944v23.942H0z"/><path d="M9.977 16.46l5.986-4.49-5.986-4.488v8.978zm1.995-14.465c-5.507 0-9.977 4.47-9.977 9.976 0 5.506 4.47 9.976 9.977 9.976 5.507 0 9.977-4.47 9.977-9.976 0-5.507-4.47-9.976-9.977-9.976zm0 17.956c-4.4 0-7.981-3.58-7.981-7.98s3.581-7.98 7.981-7.98 7.981 3.58 7.981 7.98-3.581 7.98-7.981 7.98z" fill="#FFF"/></g></svg><svg width="564" height="304" viewBox="0 0 564 304" id="main-logo--logoletters" y="212"><title>9D7AF302-823D-443F-9600-DA9DD4F4E1DE</title><g fill="none" fill-rule="evenodd"><path d="M185.588 263h2.38v-19.6h-15.4V263h2.38v-17.36h10.64V263zm10.64 0v-7.532c.98.084 2.156.112 2.94.112 4.788 0 7.056-2.968 7.056-6.16 0-3.052-1.652-6.076-7.252-6.076-1.232 0-4.032.056-5.124.056V263h2.38zm2.968-17.416c3.108 0 4.508 1.484 4.508 3.808 0 2.464-1.736 3.948-4.62 3.948-.98 0-1.904-.056-2.856-.14v-7.56c.924-.028 2.184-.056 2.968-.056zm9.576 7.616c0 5.964 4.312 10.08 9.996 10.08s9.996-4.256 9.996-10.08c0-5.964-4.312-10.08-9.996-10.08-5.824 0-9.996 4.396-9.996 10.08zm2.52 0c0-4.564 3.22-7.84 7.476-7.84 4.2 0 7.476 3.276 7.476 7.84 0 4.424-2.996 7.84-7.476 7.84-4.2 0-7.476-3.388-7.476-7.84zm35.448 6.104c-1.344 1.092-3.136 1.736-5.012 1.736-4.536 0-7.644-3.164-7.644-7.84 0-4.648 3.024-7.84 7.28-7.84 2.044 0 3.556.504 4.844 1.456l1.092-1.792c-1.4-1.204-3.444-1.904-5.964-1.904-6.132 0-9.772 4.452-9.772 10.08 0 6.104 4.06 10.08 9.94 10.08 2.436 0 4.872-.84 6.188-2.184l-.952-1.792zm2.072-13.664h6.86V263h2.38v-17.36h6.86v-2.24h-16.1v2.24zm21.7 17.36v-7.532c.98.084 2.156.112 2.94.112 4.788 0 7.056-2.968 7.056-6.16 0-3.052-1.652-6.076-7.252-6.076-1.232 0-4.032.056-5.124.056V263h2.38zm2.968-17.416c3.108 0 4.508 1.484 4.508 3.808 0 2.464-1.736 3.948-4.62 3.948-.98 0-1.904-.056-2.856-.14v-7.56c.924-.028 2.184-.056 2.968-.056zM280.536 263h2.408l2.492-5.936h8.932l2.52 5.936h2.548l-8.428-19.712h-2.044L280.536 263zm9.38-16.548l3.528 8.372h-7.056l3.528-8.372zM315.956 263h2.38v-19.6h-2.38v8.484h-10.78V243.4h-2.38V263h2.38v-8.876h10.78V263zm21.896-3.696c-1.344 1.092-3.136 1.736-5.012 1.736-4.536 0-7.644-3.164-7.644-7.84 0-4.648 3.024-7.84 7.28-7.84 2.044 0 3.556.504 4.844 1.456l1.092-1.792c-1.4-1.204-3.444-1.904-5.964-1.904-6.132 0-9.772 4.452-9.772 10.08 0 6.104 4.06 10.08 9.94 10.08 2.436 0 4.872-.84 6.188-2.184l-.952-1.792zm2.072-13.664h6.86V263h2.38v-17.36h6.86v-2.24h-16.1v2.24zm19.32 17.332c1.148.056 3.528.112 5.264.112 4.06 0 7.112-1.708 7.112-5.684 0-2.688-1.624-4.256-4.06-4.648v-.056c1.876-.616 3.36-2.072 3.36-4.536 0-2.716-1.624-4.844-6.3-4.844-1.82 0-4.284.084-5.376.112v19.544zm5.544-8.904c2.828 0 4.452 1.12 4.452 3.192 0 2.408-1.708 3.584-4.592 3.584-1.12 0-2.38-.056-3.024-.112v-6.664h3.164zm-.224-8.512c2.604 0 3.976 1.092 3.976 3.136 0 2.128-1.708 3.276-3.78 3.276h-3.136v-6.328c.7-.028 1.904-.084 2.94-.084zm10.416 7.644c0 5.964 4.312 10.08 9.996 10.08s9.996-4.256 9.996-10.08c0-5.964-4.312-10.08-9.996-10.08-5.824 0-9.996 4.396-9.996 10.08zm2.52 0c0-4.564 3.22-7.84 7.476-7.84 4.2 0 7.476 3.276 7.476 7.84 0 4.424-2.996 7.84-7.476 7.84-4.2 0-7.476-3.388-7.476-7.84zM224.43 230l6-7.5v7.5h1.04v-9h-1.04l-6 7.5V221h-1.04v9h1.04zm17.08 0h1.04v-9h-1.04v3.94h-5.84V221h-1.04v9h1.04v-4.08h5.84V230zm11.54-9h-1.34l-4.36 4.36 4.66 4.64h1.4l-4.8-4.7 4.44-4.3zm-7.34 9h1.04v-9h-1.04v9zm15.94 0h1.04v-9h-5.82l-.14 2.8c-.28 4.72-1.72 5.28-2.32 5.26l.08 1.02c1.4 0 2.86-.78 3.24-6.08l.12-1.96h3.8V230zm4.2 0h1.1v-4.08h2.26c.18 2.48 1.96 4.26 4.52 4.26 2.7 0 4.58-1.98 4.58-4.68 0-2.7-1.86-4.68-4.58-4.68-2.5 0-4.24 1.68-4.5 4.06h-2.28V221h-1.1v9zm4.52-4.5c0-2.16 1.4-3.64 3.4-3.64 2.02 0 3.38 1.5 3.38 3.64 0 2.16-1.38 3.64-3.38 3.64-1.98 0-3.4-1.46-3.4-3.64zm13.26 4.68c2.16 0 3.72-1 3.72-2.68 0-1.04-.66-2-1.96-2.12v-.04c1.16-.42 1.62-1.28 1.62-2.16 0-1.46-1.14-2.36-3.24-2.36-1.34 0-2.64.42-3.38 1.18l.42.8c.66-.54 1.52-1 2.82-1 1.38 0 2.28.54 2.28 1.56 0 .92-.82 1.64-1.84 1.64h-1.42v.86h1.52c1.28 0 2.08.56 2.08 1.5 0 1.16-1.14 1.84-2.78 1.84-.84 0-2.08-.32-2.84-1.02l-.54.8c.6.72 2.34 1.2 3.54 1.2zm7.42-.18l6-7.5v7.5h1.04v-9h-1.04l-6 7.5V221h-1.04v9h1.04zm10.2 0c.82 0 1.82.06 2.94.06 2.68 0 4.02-.9 4.02-2.54 0-1.18-.62-1.92-2.16-2.16v-.04c1.18-.18 1.82-1.08 1.82-2.06 0-1.64-1.28-2.32-3.72-2.32-1.22 0-2.12.06-2.9.06v9zm3.2-4.14c1.8 0 2.66.5 2.66 1.56 0 1.14-.98 1.66-2.8 1.66-.82 0-1.44-.02-2.02-.04v-3.18h2.16zm-.18-3.94c1.36 0 2.5.3 2.5 1.5 0 .96-.8 1.58-2.1 1.58h-2.38v-3.04c.5-.02 1.12-.04 1.98-.04zm13.48 8.08h1.04v-9h-1.04v3.94h-5.84V221h-1.04v9h1.04v-4.08h5.84V230zm3.56-4.5c0 2.7 1.92 4.68 4.72 4.68s4.72-1.98 4.72-4.68c0-2.7-1.92-4.68-4.72-4.68s-4.72 1.98-4.72 4.68zm1.1 0c0-2.18 1.54-3.7 3.62-3.7 2.12 0 3.62 1.54 3.62 3.7 0 2.18-1.5 3.7-3.62 3.7-2.1 0-3.62-1.54-3.62-3.7zm18 2.6c-.62.64-1.7 1.1-2.92 1.1-2.16 0-3.6-1.32-3.68-3.48h7.42c.04-.24.06-.5.06-.84 0-2.46-1.76-4.06-4.08-4.06-2.96 0-4.56 2.06-4.56 4.68 0 2.84 1.94 4.68 4.78 4.68 1.2 0 2.5-.42 3.32-1.28l-.34-.8zm-3.3-6.3c1.88 0 3.08 1.16 3.12 3.06h-6.48c.18-1.76 1.36-3.06 3.36-3.06z" fill="#71498C"/><path d="M360.358 119.122c0 43.209-35.064 78.237-78.318 78.237s-78.318-35.028-78.318-78.237c0-43.209 35.064-78.236 78.318-78.236s78.318 35.027 78.318 78.236" fill="#E0542F"/><path d="M204.205 125.362a78.906 78.906 0 0 1-.283-6.4c0-1.018.039-2.025.077-3.032a28.449 28.449 0 0 0-14.336 6.39 28.44 28.44 0 0 0 12.95 3.123c.537 0 1.061-.052 1.592-.08" fill="#00A3DB"/><path d="M203.999 115.93a77.765 77.765 0 0 1 14.671-42.64 28.46 28.46 0 0 0-16.057-4.936c-15.78 0-28.574 12.78-28.574 28.544 0 11.103 6.358 20.702 15.624 25.422a28.44 28.44 0 0 0 12.95 3.123c.537 0 1.062-.052 1.592-.08a78.906 78.906 0 0 1-.283-6.402c0-1.017.04-2.024.077-3.03" fill="#286AA6"/><path d="M203.999 115.93a78.035 78.035 0 0 0-.077 3.031c0 2.158.112 4.289.283 6.402a28.445 28.445 0 0 0 16.795-6.63 28.444 28.444 0 0 0-12.95-3.122c-1.38 0-2.724.131-4.051.32" fill="#71498C"/><path d="M221 118.733a28.44 28.44 0 0 0-12.95-3.122c-1.38 0-2.724.13-4.051.32-.038 1.007-.077 2.014-.077 3.03 0 2.157.111 4.288.283 6.402a77.824 77.824 0 0 0 17.855 43.655c8.687-4.896 14.564-14.188 14.564-24.863 0-11.102-6.359-20.701-15.625-25.422" fill="#EFA047"/><path d="M360.558 68.354c-5.572 0-10.753 1.618-15.149 4.373a77.775 77.775 0 0 1 15.072 43.212c.04 1.004.077 2.008.077 3.022 0 2.18-.113 4.333-.288 6.467.097.001.191.015.288.015 4.977 0 9.654-1.276 13.73-3.511 8.845-4.852 14.845-14.241 14.845-25.033 0-15.765-12.794-28.545-28.575-28.545" fill="#71498C"/><path d="M374.287 121.932a28.437 28.437 0 0 0-13.805-5.994c.038 1.005.076 2.01.076 3.023 0 2.18-.113 4.332-.288 6.467-1.355 16.524-7.833 31.595-17.868 43.612a28.444 28.444 0 0 0 13.973 3.66c15.781 0 28.575-12.78 28.575-28.544 0-8.987-4.166-16.992-10.663-22.224" fill="#00A3DB"/><path d="M360.482 115.939c-1.345-.194-2.709-.328-4.107-.328a28.456 28.456 0 0 0-13.73 3.511c-8.845 4.852-14.845 14.24-14.845 25.033 0 10.69 5.893 19.995 14.602 24.886 10.035-12.018 16.513-27.088 17.869-43.612a79.09 79.09 0 0 0 .288-6.468c0-1.014-.04-2.018-.077-3.022" fill="#EFA047"/><path d="M360.482 115.939a77.77 77.77 0 0 0-15.073-43.213c-8.054 5.048-13.425 13.974-13.425 24.172 0 8.986 4.165 16.991 10.662 22.224a28.456 28.456 0 0 0 17.625 6.307 79.09 79.09 0 0 0 .288-6.468c0-1.014-.04-2.018-.077-3.022" fill="#EFA047"/><path d="M412.917 130.379c-6.312 0-11.43 5.111-11.43 11.418 0 6.305 5.118 11.417 11.43 11.417v-22.835z" fill="#71498C"/><path d="M412.917 153.214c-6.312 0-11.43-5.112-11.43-11.417 0-6.307 5.118-11.418 11.43-11.418V118.96c-12.624 0-22.859 10.224-22.859 22.836 0 12.611 10.235 22.835 22.86 22.835v-11.418z" fill="#E0542F"/><path fill="#00A3DB" d="M296.134 146.268l22.86 22.836v-45.671z"/><path fill="#292D78" d="M296.134 146.268l22.86 22.835h-45.719z"/><path fill="#71498C" d="M296.134 146.268l-22.859 22.836v-45.671z"/><path fill="#292D78" d="M284.705 115.375h22.859V92.54h-22.859z"/><path fill="#71498C" d="M307.555 92.54h11.43V69.704h-11.43z"/><path fill="#286AA6" d="M284.705 92.54h22.859V69.704h-22.859z"/><path fill="#00A3DB" d="M273.231 92.54h11.43V69.704h-11.43z"/><path d="M263.771 103.957c-6.312 0-11.43-5.111-11.43-11.417s5.118-11.418 11.43-11.418V69.704c-12.624 0-22.859 10.224-22.859 22.836 0 12.612 10.235 22.836 22.86 22.836v-11.419z" fill="#292D78"/><path d="M263.771 81.122c-6.312 0-11.43 5.112-11.43 11.418 0 6.306 5.118 11.417 11.43 11.417V81.122z" fill="#71498C"/><path d="M263.41 134.91c-6.312 0-11.43 5.112-11.43 11.419 0 6.305 5.118 11.417 11.43 11.417V134.91z" fill="#EFA047"/><path d="M263.41 157.746c-6.312 0-11.43-5.112-11.43-11.417 0-6.307 5.118-11.418 11.43-11.418v-11.419c-12.624 0-22.86 10.225-22.86 22.837 0 12.611 10.236 22.835 22.86 22.835v-11.418z" fill="#71498C"/><path d="M368.182 144.634c0 6.305-5.117 11.418-11.43 11.418s-11.43-5.113-11.43-11.418c0-6.306 5.117-11.419 11.43-11.419s11.43 5.113 11.43 11.419m-7.7-28.695c-1.345-.194-2.709-.328-4.107-.328a28.456 28.456 0 0 0-13.73 3.511 28.456 28.456 0 0 0 17.626 6.307 79.07 79.07 0 0 0 .288-6.468c0-1.014-.04-2.018-.077-3.022" fill="#292D78"/><path d="M360.558 118.96c0 2.18-.113 4.334-.288 6.468.097.001.191.014.288.014 4.977 0 9.654-1.275 13.73-3.51a28.435 28.435 0 0 0-13.807-5.993c.04 1.004.077 2.008.077 3.022" fill="#286AA6"/><path d="M203.999 115.93a78.035 78.035 0 0 0-.077 3.031c0 2.158.112 4.289.283 6.402a28.445 28.445 0 0 0 16.795-6.63 28.444 28.444 0 0 0-12.95-3.122c-1.38 0-2.724.131-4.051.32" fill="#71498C"/><path fill="#292D78" d="M154.064 146.268l-22.86 22.835h45.719z"/><path fill="#00A3DB" d="M154.064 146.268l-22.86-22.835h45.719z"/><path d="M204.205 125.362a78.906 78.906 0 0 1-.283-6.4c0-1.018.039-2.025.077-3.032a28.449 28.449 0 0 0-14.336 6.39c-6.224 5.237-10.188 13.07-10.188 21.836 0 15.764 12.794 28.543 28.575 28.543 5.094 0 9.868-1.346 14.009-3.681a77.825 77.825 0 0 1-17.854-43.656" fill="#292D78"/><path d="M204.205 125.362a78.906 78.906 0 0 1-.283-6.4c0-1.018.039-2.025.077-3.032a28.449 28.449 0 0 0-14.336 6.39 28.44 28.44 0 0 0 12.95 3.123c.537 0 1.061-.052 1.592-.08" fill="#00A3DB"/><path fill="#286AA6" d="M154.064 146.268l-22.86 22.836v-45.671z"/><path d="M213.881 97.297c0 6.306-5.116 11.419-11.43 11.419-6.312 0-11.429-5.113-11.429-11.419 0-6.305 5.117-11.418 11.43-11.418s11.43 5.113 11.43 11.418" fill="#E0542F"/><path d="M208.05 115.61a28.44 28.44 0 0 1 12.95 3.123c6.224-5.235 10.186-13.07 10.186-21.835 0-9.816-4.962-18.471-12.516-23.608A77.765 77.765 0 0 0 204 115.93c1.327-.188 2.672-.32 4.05-.32m-53.986-11.153c9.469 0 17.144-7.668 17.144-17.126 0-9.46-7.675-17.127-17.144-17.127v34.253z" fill="#EFA047"/><path fill="#00A3DB" d="M131.205 115.875h22.86v-11.418h-22.86z"/><path fill="#71498C" d="M131.204 104.457h22.859V70.203h-22.859z"/><path fill="#EFA047" d="M99.576 115.375h22.858V92.54H99.576z"/><path fill="#71498C" d="M99.576 92.54h22.858V69.704H99.576z"/><path fill="#00A3DB" d="M88.146 92.54h11.43V69.704h-11.43z"/><path fill="#286AA6" d="M65.287 92.54h22.859V69.704h-22.86z"/><path fill="#00A3DB" d="M65.287 115.375h22.859V92.54h-22.86z"/></g></svg><svg width="1597" height="585" viewBox="0 0 1597 585" id="page-main--pattern" y="516"><title>0FF76410-D426-4D85-8092-6CF0FE2DB71B</title><defs><path id="fa" d="M33.936 37.753V.125H.61v37.628h33.326z"/><path id="fc" d="M32.784.099H.757v35.747h32.027V.1z"/><path id="fe" d="M0 584h1596.936V.099H0z"/></defs><g fill="none" fill-rule="evenodd"><path stroke="#00A3DB" stroke-width="1.5" d="M1576.633 214.015l-14.293-14.293 14.293-14.293 14.293 14.293z"/><g transform="translate(0 .901)"><g transform="translate(1563 55)"><mask id="fb" fill="#fff"><use xlink:href="#fa"/></mask><path d="M29.342 26.943A51.827 51.827 0 0 1 15.824.125a18.922 18.922 0 0 0-9.813 5.354c-7.33 7.517-7.18 19.555.337 26.886 5.295 5.163 12.826 6.598 19.381 4.379a18.91 18.91 0 0 0 7.505-4.717c.25-.256.47-.53.702-.796a52.34 52.34 0 0 1-3.184-2.842 51.82 51.82 0 0 1-1.41-1.446z" stroke="#286AA6" mask="url(#fb)"/></g><path d="M1270.562 142.606a51.834 51.834 0 0 1-16.326-25.207 18.922 18.922 0 0 0-9.18 6.379c-6.48 8.262-5.033 20.213 3.23 26.693 5.819 4.563 13.46 5.179 19.739 2.267a18.898 18.898 0 0 0 6.954-5.497c.22-.281.409-.577.61-.866a53.103 53.103 0 0 1-3.47-2.483 52.878 52.878 0 0 1-1.557-1.286z" stroke="#EFA047" stroke-width="2"/><g transform="translate(1229)"><mask id="fd" fill="#fff"><use xlink:href="#fc"/></mask><path d="M18.475 7.43c4.529 3.263 5.557 9.579 2.295 14.108-3.261 4.53-9.577 5.557-14.107 2.295L.757 32.035c9.059 6.523 21.69 4.468 28.215-4.591C35.495 18.384 33.44 5.753 24.38-.77l-5.906 8.2z" stroke="#292D78" mask="url(#fd)"/></g><path stroke="#286AA6" d="M1485.34 190.173l20.213 20.213V169.96l-20.213 20.213"/><path stroke="#00A3DB" stroke-width="1.5" d="M1365.749 228.127l20.213 20.213h-40.426l20.213-20.213"/><path stroke="#286AA6" d="M1404.407 88.31h-28.586l28.586-28.586V88.31"/><path d="M1313.983 215.789l-.354-.354" stroke="#71498C"/><path d="M1312.907 214.713l-18.423-18.422" stroke="#71498C" stroke-dasharray="1.022,1.022"/><path stroke="#71498C" d="M1294.123 195.93l-.354-.355h.5"/><path d="M1295.28 195.576h37.91" stroke="#71498C" stroke-dasharray="1.011,1.011"/><path stroke="#71498C" d="M1333.696 195.576h.5l-.354.354"/><path d="M1333.12 196.652l-18.421 18.422" stroke="#71498C" stroke-dasharray="1.022,1.022"/><path d="M1314.337 215.435l-.354.354" stroke="#71498C"/><mask id="ff" fill="#fff"><use xlink:href="#fe"/></mask><path stroke="#00A3DB" stroke-width="1.5" mask="url(#ff)" d="M1431.439 151.469h10.107v-20.213h-10.107z"/><path stroke="#EFA047" stroke-width="2" mask="url(#ff)" d="M1530.625 255.34h10.107v-20.213h-10.107z"/><path d="M1490.89 78.195h-.5c0 .168-.005.334-.013.5" stroke="#71498C" mask="url(#ff)"/><path d="M1490.28 79.682c-.718 4.877-4.92 8.619-9.997 8.619-5.25 0-9.564-4.002-10.06-9.121" stroke="#71498C" stroke-dasharray="0.992,0.992" mask="url(#ff)"/><path d="M1470.189 78.695a10.365 10.365 0 0 1-.012-.5h-.5" stroke="#71498C" mask="url(#ff)"/><path d="M1468.664 78.195h-7.589" stroke="#71498C" stroke-dasharray="1.012,1.012" mask="url(#ff)"/><path d="M1460.57 78.195h-.5c0 .167.002.334.006.5" stroke="#71498C" mask="url(#ff)"/><path d="M1460.124 79.685c.763 10.467 9.497 18.722 20.159 18.722 10.829 0 19.669-8.516 20.189-19.216" stroke="#71498C" stroke-dasharray="0.992,0.992" mask="url(#ff)"/><path d="M1500.49 78.695c.004-.166.006-.333.006-.5h-.5" stroke="#71498C" mask="url(#ff)"/><path d="M1498.984 78.195h-7.589" stroke="#71498C" stroke-dasharray="1.012,1.012" mask="url(#ff)"/><path d="M1406.685 184.51c-5.582 0-10.107 4.525-10.107 10.107 0 5.58 4.525 10.106 10.107 10.106v-20.214z" stroke="#EFA047" stroke-width="2" mask="url(#ff)"/><path d="M1278.292 239.486c0 5.582-4.525 10.107-10.107 10.107-5.581 0-10.106-4.525-10.106-10.107 0-5.582 4.525-10.107 10.106-10.107 5.582 0 10.107 4.525 10.107 10.107zm82.621-103.352c0 5.582-4.525 10.107-10.107 10.107-5.581 0-10.106-4.525-10.106-10.107 0-5.582 4.525-10.107 10.106-10.107 5.582 0 10.107 4.525 10.107 10.107z" stroke="#292D78" mask="url(#ff)"/><path d="M1544.204 133.833c0 5.582-4.525 10.107-10.107 10.107-5.582 0-10.106-4.525-10.106-10.107 0-5.582 4.524-10.107 10.106-10.107s10.107 4.525 10.107 10.107z" stroke="#71498C" stroke-dasharray="0.992,0.992" mask="url(#ff)"/><path d="M1451.86 16.565c-6.47-5.312-16.024-4.372-21.336 2.099-5.312 6.472-4.373 16.024 2.1 21.336l19.236-23.435z" stroke="#EFA047" stroke-width="2" mask="url(#ff)"/><path d="M1469.832 228.48l.354-.353a16.708 16.708 0 0 0-.36-.347" stroke="#71498C" mask="url(#ff)"/><path d="M1469.08 227.125c-5.954-4.896-14.77-4.562-20.333 1.002-5.684 5.684-5.911 14.758-.682 20.712" stroke="#71498C" stroke-dasharray="0.992,0.992" mask="url(#ff)"/><path d="M1448.398 249.207c.114.121.23.241.348.36l.353-.354" stroke="#71498C" mask="url(#ff)"/><path d="M1449.815 248.498l19.66-19.66" stroke="#71498C" stroke-dasharray="1.011,1.011" mask="url(#ff)"/><path stroke="#71498C" mask="url(#ff)" d="M1183.18 151.294h-.5v-.5"/><path d="M1182.68 149.783V121.98" stroke="#71498C" stroke-dasharray="1.011,1.011" mask="url(#ff)"/><path stroke="#71498C" mask="url(#ff)" d="M1182.68 121.474v-.5h.5"/><path d="M1184.19 120.974h17.697" stroke="#71498C" stroke-dasharray="1.011,1.011" mask="url(#ff)"/><path stroke="#71498C" mask="url(#ff)" d="M1202.393 120.974h.5v.5"/><path d="M1202.893 122.486v27.802" stroke="#71498C" stroke-dasharray="1.011,1.011" mask="url(#ff)"/><path stroke="#71498C" mask="url(#ff)" d="M1202.893 150.794v.5h-.5"/><path d="M1201.381 151.294h-17.696" stroke="#71498C" stroke-dasharray="1.011,1.011" mask="url(#ff)"/><path stroke="#00A3DB" stroke-width="1.5" mask="url(#ff)" d="M1213.633 209.564l-14.293-14.293 14.293-14.293 14.293 14.293zm116.96-175.616h20.213V13.735h-20.213z"/><path stroke="#71498C" mask="url(#ff)" d="M1294.579 91.23h-.5v-.5"/><path d="M1294.079 89.719V72.023" stroke="#71498C" stroke-dasharray="1.011,1.011" mask="url(#ff)"/><path stroke="#71498C" mask="url(#ff)" d="M1294.079 71.517v-.5h.5"/><path d="M1295.59 71.017h7.59" stroke="#71498C" stroke-dasharray="1.012,1.012" mask="url(#ff)"/><path stroke="#71498C" mask="url(#ff)" d="M1303.685 71.017h.5v.5"/><path d="M1304.185 72.528v17.696" stroke="#71498C" stroke-dasharray="1.011,1.011" mask="url(#ff)"/><path stroke="#71498C" mask="url(#ff)" d="M1304.185 90.73v.5h-.5"/><path d="M1302.674 91.23h-7.59" stroke="#71498C" stroke-dasharray="1.012,1.012" mask="url(#ff)"/><path stroke="#E0542F" mask="url(#ff)" d="M1520.519 42.631h20.213V22.418h-20.213z"/><path d="M1209.04 70.314a51.827 51.827 0 0 1-13.518-26.818 18.922 18.922 0 0 0-9.813 5.354c-7.331 7.517-7.18 19.555.337 26.886 5.295 5.163 12.826 6.598 19.38 4.38a18.91 18.91 0 0 0 7.506-4.718c.25-.256.469-.53.702-.796a52.34 52.34 0 0 1-3.184-2.842 51.82 51.82 0 0 1-1.41-1.446zM836.067 12.863a51.84 51.84 0 0 1-17.665 24.288 18.919 18.919 0 0 0 9.25 6.277c10.037 3.08 20.672-2.56 23.753-12.598 2.17-7.07 0-14.423-4.97-19.237a18.909 18.909 0 0 0-7.627-4.517c-.342-.104-.687-.174-1.03-.26a52.59 52.59 0 0 1-1.07 4.132c-.2.648-.42 1.28-.641 1.915z" stroke="#286AA6" mask="url(#ff)"/><path d="M1144.02 187.326l-.353.354c.119.118.24.233.363.344" stroke="#71498C" mask="url(#ff)"/><path d="M1144.795 188.654c3.957 2.94 9.575 2.615 13.164-.975 3.712-3.712 3.933-9.593.663-13.563" stroke="#71498C" stroke-dasharray="0.992,0.992" mask="url(#ff)"/><path d="M1158.305 173.748a9.022 9.022 0 0 0-.345-.362l-.353.353" stroke="#71498C" mask="url(#ff)"/><path d="M1156.891 174.455l-12.513 12.513" stroke="#71498C" stroke-dasharray="1.011,1.011" mask="url(#ff)"/><path d="M836.27 129.064c3.947 3.947 3.947 10.346 0 14.293-3.947 3.947-10.346 3.947-14.293 0l-7.146 7.146c7.893 7.894 20.692 7.894 28.586 0 7.893-7.894 7.893-20.692 0-28.586l-7.147 7.147z" stroke="#E0542F" mask="url(#ff)"/><path stroke="#286AA6" mask="url(#ff)" d="M1071.84 190.173l20.213 20.213V169.96l-20.213 20.213"/><path stroke="#292D78" mask="url(#ff)" d="M970.724 243.725l20.213 20.213H950.51l20.213-20.213"/><path stroke="#286AA6" mask="url(#ff)" d="M1038.907 35.856h-28.586l28.586-28.586v28.586"/><path d="M890.685 215.789l-.354-.354" stroke="#71498C" mask="url(#ff)"/><path d="M889.61 214.713l-18.424-18.422" stroke="#71498C" stroke-dasharray="1.022,1.022" mask="url(#ff)"/><path stroke="#71498C" mask="url(#ff)" d="M870.826 195.93l-.354-.355h.5"/><path d="M871.983 195.576h37.91" stroke="#71498C" stroke-dasharray="1.011,1.011" mask="url(#ff)"/><path stroke="#71498C" mask="url(#ff)" d="M910.399 195.576h.5l-.354.354"/><path d="M909.823 196.652L891.4 215.074" stroke="#71498C" stroke-dasharray="1.022,1.022" mask="url(#ff)"/><path d="M891.04 215.435l-.355.354m127.753-64.319h-.5v-.5" stroke="#71498C" mask="url(#ff)"/><path d="M1017.938 149.958v-17.696" stroke="#71498C" stroke-dasharray="1.011,1.011" mask="url(#ff)"/><path stroke="#71498C" mask="url(#ff)" d="M1017.938 131.756v-.5h.5"/><path d="M1019.45 131.256h7.59" stroke="#71498C" stroke-dasharray="1.012,1.012" mask="url(#ff)"/><path stroke="#71498C" mask="url(#ff)" d="M1027.545 131.256h.5v.5"/><path d="M1028.045 132.767v17.696" stroke="#71498C" stroke-dasharray="1.011,1.011" mask="url(#ff)"/><path stroke="#71498C" mask="url(#ff)" d="M1028.045 150.97v.5h-.5"/><path d="M1026.533 151.47h-7.589" stroke="#71498C" stroke-dasharray="1.012,1.012" mask="url(#ff)"/><path stroke="#EFA047" stroke-width="2" mask="url(#ff)" d="M1155.54 261.208h10.107v-20.213h-10.107z"/><path d="M1076.89 78.195c0 5.582-4.526 10.107-10.107 10.107-5.582 0-10.107-4.526-10.107-10.108h-10.107c0 11.163 9.05 20.213 20.214 20.213 11.163 0 20.213-9.05 20.213-20.212h-10.107z" stroke="#292D78" mask="url(#ff)"/><path d="M993.185 184.51c-5.582 0-10.107 4.525-10.107 10.107 0 5.58 4.525 10.106 10.107 10.106v-20.214zm-144.078 72.621c0 5.582-4.525 10.107-10.107 10.107-5.58 0-10.106-4.525-10.106-10.107 0-5.582 4.525-10.107 10.106-10.107 5.582 0 10.107 4.525 10.107 10.107z" stroke="#EFA047" stroke-width="2" mask="url(#ff)"/><path d="M947.413 136.134c0 5.582-4.525 10.107-10.107 10.107-5.581 0-10.106-4.525-10.106-10.107 0-5.582 4.525-10.107 10.106-10.107 5.582 0 10.107 4.525 10.107 10.107z" stroke="#292D78" mask="url(#ff)"/><path d="M1130.703 133.833c0 5.582-4.525 10.107-10.107 10.107-5.58 0-10.106-4.525-10.106-10.107 0-5.582 4.525-10.107 10.106-10.107 5.582 0 10.107 4.525 10.107 10.107z" stroke="#E0542F" mask="url(#ff)"/><path d="M979.743 91.267c5.92-5.92 5.92-15.52 0-21.44-5.92-5.92-15.52-5.92-21.44 0l21.44 21.44z" stroke="#EFA047" stroke-width="2" mask="url(#ff)"/><path d="M1071.678 232.78l.354-.354a16.708 16.708 0 0 0-.36-.347" stroke="#71498C" mask="url(#ff)"/><path d="M1070.927 231.424c-5.955-4.896-14.77-4.562-20.334 1.002-5.684 5.684-5.911 14.758-.682 20.712" stroke="#71498C" stroke-dasharray="0.992,0.992" mask="url(#ff)"/><path d="M1050.245 253.506c.114.121.229.241.348.36l.352-.354" stroke="#71498C" mask="url(#ff)"/><path d="M1051.66 252.797l19.66-19.66" stroke="#71498C" stroke-dasharray="1.011,1.011" mask="url(#ff)"/><path stroke="#71498C" mask="url(#ff)" d="M937.306 33.448v.5h-.5"/><path d="M935.795 33.948h-17.696" stroke="#71498C" stroke-dasharray="1.011,1.011" mask="url(#ff)"/><path stroke="#71498C" mask="url(#ff)" d="M917.593 33.948h-.5v-.5"/><path d="M917.093 32.437V14.741" stroke="#71498C" stroke-dasharray="1.011,1.011" mask="url(#ff)"/><path stroke="#71498C" mask="url(#ff)" d="M917.093 14.235v-.5h.5"/><path d="M918.604 13.735H936.3" stroke="#71498C" stroke-dasharray="1.011,1.011" mask="url(#ff)"/><path stroke="#71498C" mask="url(#ff)" d="M936.806 13.735h.5v.5"/><path d="M937.306 15.246v17.696" stroke="#71498C" stroke-dasharray="1.011,1.011" mask="url(#ff)"/><path stroke="#00A3DB" stroke-width="1.5" mask="url(#ff)" d="M880.579 91.23h10.107V71.017h-10.107z"/><path stroke="#E0542F" mask="url(#ff)" d="M1117.125 46.817l-14.293-14.293 14.293-14.293 14.293 14.293z"/><path stroke="#00A3DB" stroke-width="1.5" mask="url(#ff)" d="M783.667 213.114l-14.293-14.293 14.293-14.293 14.293 14.293z"/><path d="M698.2 251.559a51.827 51.827 0 0 1-13.518-26.818 18.92 18.92 0 0 0-9.813 5.354c-7.331 7.517-7.18 19.555.338 26.886 5.294 5.163 12.825 6.598 19.381 4.379a18.913 18.913 0 0 0 7.504-4.717c.25-.256.469-.53.702-.796a52.34 52.34 0 0 1-3.184-2.842 51.82 51.82 0 0 1-1.41-1.446z" stroke="#286AA6" mask="url(#ff)"/><path d="M477.596 142.606a51.834 51.834 0 0 1-16.326-25.207 18.922 18.922 0 0 0-9.18 6.379c-6.48 8.262-5.033 20.213 3.23 26.693 5.819 4.563 13.46 5.179 19.739 2.267a18.898 18.898 0 0 0 6.954-5.497c.22-.281.409-.577.61-.866a53.103 53.103 0 0 1-3.47-2.483c-.533-.418-1.045-.852-1.557-1.286z" stroke="#EFA047" stroke-width="2" mask="url(#ff)"/><path d="M454.509 7.43c4.529 3.263 5.557 9.579 2.295 14.108-3.261 4.53-9.577 5.557-14.107 2.295l-5.906 8.202c9.059 6.523 21.69 4.468 28.215-4.591 6.523-9.06 4.468-21.691-4.591-28.214l-5.906 8.2z" stroke="#292D78" mask="url(#ff)"/><path stroke="#286AA6" mask="url(#ff)" d="M689.669 173.732l20.213 20.214v-40.427l-20.213 20.213M574 240.683l20.214 20.213h-40.426L574 240.683M611.441 88.31h-28.586l28.586-28.586V88.31"/><path d="M521.017 215.789l-.354-.354" stroke="#71498C" mask="url(#ff)"/><path d="M519.941 214.713l-18.423-18.422" stroke="#71498C" stroke-dasharray="1.022,1.022" mask="url(#ff)"/><path stroke="#71498C" mask="url(#ff)" d="M501.157 195.93l-.354-.355h.5"/><path d="M502.315 195.576h37.91" stroke="#71498C" stroke-dasharray="1.011,1.011" mask="url(#ff)"/><path stroke="#71498C" mask="url(#ff)" d="M540.73 195.576h.5l-.354.354"/><path d="M540.154 196.652l-18.422 18.422" stroke="#71498C" stroke-dasharray="1.022,1.022" mask="url(#ff)"/><path d="M521.37 215.435l-.354.354" stroke="#71498C" mask="url(#ff)"/><path stroke="#00A3DB" stroke-width="1.5" mask="url(#ff)" d="M638.472 151.469h10.107v-20.213h-10.107z"/><path stroke="#EFA047" stroke-width="2" mask="url(#ff)" d="M765.185 259.699h10.107v-20.213h-10.107z"/><path d="M697.423 78.195c0 5.582-4.525 10.107-10.106 10.107-5.582 0-10.107-4.526-10.107-10.108h-10.107c0 11.163 9.05 20.213 20.214 20.213 11.163 0 20.213-9.05 20.213-20.212h-10.107z" stroke="#286AA6" mask="url(#ff)"/><path d="M613.72 184.51c-5.583 0-10.108 4.525-10.108 10.107 0 5.58 4.525 10.106 10.107 10.106v-20.214z" stroke="#EFA047" stroke-width="2" mask="url(#ff)"/><path d="M479.748 257.131c0 5.582-4.525 10.107-10.107 10.107-5.581 0-10.106-4.525-10.106-10.107 0-5.582 4.525-10.107 10.106-10.107 5.582 0 10.107 4.525 10.107 10.107z" stroke="#71498C" stroke-dasharray="0.992,0.992" mask="url(#ff)"/><path d="M567.946 136.134c0 5.582-4.525 10.107-10.107 10.107-5.58 0-10.106-4.525-10.106-10.107 0-5.582 4.525-10.107 10.106-10.107 5.582 0 10.107 4.525 10.107 10.107z" stroke="#292D78" mask="url(#ff)"/><path d="M751.237 133.833c0 5.582-4.525 10.107-10.107 10.107-5.58 0-10.106-4.525-10.106-10.107 0-5.582 4.525-10.107 10.106-10.107 5.582 0 10.107 4.525 10.107 10.107zM658.894 16.565c-6.47-5.312-16.024-4.372-21.336 2.099-5.312 6.472-4.373 16.024 2.1 21.336l19.236-23.435z" stroke="#EFA047" stroke-width="2" mask="url(#ff)"/><path d="M796.6 68.602l.355-.354a16.708 16.708 0 0 0-.36-.347" stroke="#71498C" mask="url(#ff)"/><path d="M795.85 67.246c-5.956-4.896-14.77-4.562-20.336 1.003-5.683 5.683-5.91 14.757-.68 20.71" stroke="#71498C" stroke-dasharray="0.992,0.992" mask="url(#ff)"/><path d="M775.167 89.328c.114.121.23.241.348.36l.353-.354" stroke="#71498C" mask="url(#ff)"/><path d="M776.583 88.619l19.66-19.66" stroke="#71498C" stroke-dasharray="1.011,1.011" mask="url(#ff)"/><path stroke="#71498C" mask="url(#ff)" d="M390.213 151.294h-.5v-.5"/><path d="M389.713 149.783V121.98" stroke="#71498C" stroke-dasharray="1.011,1.011" mask="url(#ff)"/><path stroke="#71498C" mask="url(#ff)" d="M389.713 121.474v-.5h.5"/><path d="M391.224 120.974h17.697" stroke="#71498C" stroke-dasharray="1.011,1.011" mask="url(#ff)"/><path stroke="#71498C" mask="url(#ff)" d="M409.426 120.974h.5v.5"/><path d="M409.926 122.486v27.802" stroke="#71498C" stroke-dasharray="1.011,1.011" mask="url(#ff)"/><path stroke="#71498C" mask="url(#ff)" d="M409.926 150.794v.5h-.5"/><path d="M408.415 151.294H390.72" stroke="#71498C" stroke-dasharray="1.011,1.011" mask="url(#ff)"/><path stroke="#00A3DB" stroke-width="1.5" mask="url(#ff)" d="M420.667 209.564l-14.293-14.293 14.293-14.293 14.293 14.293zm116.96-175.616h20.213V13.735h-20.213z"/><path stroke="#71498C" mask="url(#ff)" d="M501.613 91.23h-.5v-.5"/><path d="M501.113 89.719V72.023" stroke="#71498C" stroke-dasharray="1.011,1.011" mask="url(#ff)"/><path stroke="#71498C" mask="url(#ff)" d="M501.113 71.517v-.5h.5"/><path d="M502.624 71.017h7.59" stroke="#71498C" stroke-dasharray="1.012,1.012" mask="url(#ff)"/><path stroke="#71498C" mask="url(#ff)" d="M510.72 71.017h.5v.5"/><path d="M511.22 72.528v17.696" stroke="#71498C" stroke-dasharray="1.011,1.011" mask="url(#ff)"/><path stroke="#71498C" mask="url(#ff)" d="M511.22 90.73v.5h-.5"/><path d="M509.707 91.23h-7.589" stroke="#71498C" stroke-dasharray="1.012,1.012" mask="url(#ff)"/><path stroke="#71498C" mask="url(#ff)" d="M738.013 46.464l-.355.354-.352-.354"/><path d="M736.59 45.749l-12.513-12.513" stroke="#71498C" stroke-dasharray="1.011,1.011" mask="url(#ff)"/><path stroke="#71498C" mask="url(#ff)" d="M723.72 32.878l-.354-.354.354-.353"/><path d="M724.435 31.456l12.513-12.513" stroke="#71498C" stroke-dasharray="1.011,1.011" mask="url(#ff)"/><path stroke="#71498C" mask="url(#ff)" d="M737.306 18.585l.353-.354.354.354"/><path d="M738.728 19.3l12.513 12.513" stroke="#71498C" stroke-dasharray="1.011,1.011" mask="url(#ff)"/><path stroke="#71498C" mask="url(#ff)" d="M751.598 32.17l.354.355-.354.353"/><path d="M750.883 33.593L738.37 46.106" stroke="#71498C" stroke-dasharray="1.011,1.011" mask="url(#ff)"/><path d="M416.074 70.314a51.827 51.827 0 0 1-13.518-26.818 18.926 18.926 0 0 0-9.813 5.354c-7.331 7.517-7.18 19.555.338 26.886 5.294 5.163 12.825 6.598 19.38 4.38a18.913 18.913 0 0 0 7.505-4.718c.25-.256.469-.53.702-.796a52.34 52.34 0 0 1-3.184-2.842 51.82 51.82 0 0 1-1.41-1.446zM49.838 125.175a51.835 51.835 0 0 1-17.665 24.288 18.919 18.919 0 0 0 9.25 6.277c10.038 3.081 20.673-2.56 23.754-12.598 2.17-7.069 0-14.423-4.97-19.237a18.909 18.909 0 0 0-7.628-4.517c-.342-.104-.686-.174-1.029-.259a52.59 52.59 0 0 1-1.07 4.131c-.2.648-.42 1.281-.642 1.915z" stroke="#286AA6" mask="url(#ff)"/><path d="M351.054 187.326l-.354.354c.12.118.24.233.363.344" stroke="#71498C" mask="url(#ff)"/><path d="M351.83 188.654c3.956 2.94 9.574 2.615 13.163-.975 3.712-3.712 3.933-9.593.663-13.563" stroke="#71498C" stroke-dasharray="0.992,0.992" mask="url(#ff)"/><path d="M365.339 173.748a10.698 10.698 0 0 0-.345-.362l-.353.353" stroke="#71498C" mask="url(#ff)"/><path d="M363.925 174.455l-12.513 12.513" stroke="#71498C" stroke-dasharray="1.011,1.011" mask="url(#ff)"/><path d="M57.597 21.538c-3.947 3.947-10.346 3.947-14.293 0-3.947-3.947-3.947-10.346 0-14.293L36.158.099c-7.894 7.893-7.894 20.692 0 28.586 7.894 7.893 20.692 7.893 28.586 0l-7.147-7.147z" stroke="#E0542F" mask="url(#ff)"/><path stroke="#286AA6" mask="url(#ff)" d="M278.874 173.732l20.213 20.214v-40.427l-20.213 20.213"/><path stroke="#292D78" mask="url(#ff)" d="M158.064 243.725l20.213 20.213H137.85l20.213-20.213"/><path stroke="#286AA6" mask="url(#ff)" d="M245.941 35.856h-28.586L245.941 7.27v28.586"/><path d="M97.72 215.789l-.355-.354" stroke="#71498C" mask="url(#ff)"/><path d="M96.643 214.713L78.22 196.29" stroke="#71498C" stroke-dasharray="1.022,1.022" mask="url(#ff)"/><path stroke="#71498C" mask="url(#ff)" d="M77.86 195.93l-.354-.355h.5"/><path d="M79.017 195.576h37.91" stroke="#71498C" stroke-dasharray="1.011,1.011" mask="url(#ff)"/><path stroke="#71498C" mask="url(#ff)" d="M117.433 195.576h.5l-.355.354"/><path d="M116.856 196.652l-18.421 18.422" stroke="#71498C" stroke-dasharray="1.022,1.022" mask="url(#ff)"/><path d="M98.073 215.435l-.354.354m127.753-64.319h-.5v-.5" stroke="#71498C" mask="url(#ff)"/><path d="M224.972 149.958v-17.696" stroke="#71498C" stroke-dasharray="1.011,1.011" mask="url(#ff)"/><path stroke="#71498C" mask="url(#ff)" d="M224.972 131.756v-.5h.5"/><path d="M226.484 131.256h7.59" stroke="#71498C" stroke-dasharray="1.012,1.012" mask="url(#ff)"/><path stroke="#71498C" mask="url(#ff)" d="M234.579 131.256h.5v.5"/><path d="M235.079 132.767v17.696" stroke="#71498C" stroke-dasharray="1.011,1.011" mask="url(#ff)"/><path stroke="#71498C" mask="url(#ff)" d="M235.079 150.97v.5h-.5"/><path d="M233.567 151.47h-7.589" stroke="#71498C" stroke-dasharray="1.012,1.012" mask="url(#ff)"/><path stroke="#EFA047" stroke-width="2" mask="url(#ff)" d="M367.954 269.806h10.107v-20.213h-10.107z"/><path d="M283.923 78.195c0 5.582-4.525 10.107-10.106 10.107-5.582 0-10.107-4.526-10.107-10.108h-10.107c0 11.163 9.05 20.213 20.214 20.213 11.163 0 20.213-9.05 20.213-20.212h-10.107z" stroke="#292D78" mask="url(#ff)"/><path d="M200.22 184.51c-5.583 0-10.108 4.525-10.108 10.107 0 5.58 4.525 10.106 10.107 10.106v-20.214zM56.141 257.131c0 5.582-4.525 10.107-10.107 10.107-5.58 0-10.106-4.525-10.106-10.107 0-5.582 4.525-10.107 10.106-10.107 5.582 0 10.107 4.525 10.107 10.107z" stroke="#EFA047" stroke-width="2" mask="url(#ff)"/><path d="M154.446 136.134c0 5.582-4.525 10.107-10.107 10.107-5.58 0-10.106-4.525-10.106-10.107 0-5.582 4.525-10.107 10.106-10.107 5.582 0 10.107 4.525 10.107 10.107z" stroke="#292D78" mask="url(#ff)"/><path d="M337.737 133.833c0 5.582-4.525 10.107-10.107 10.107-5.58 0-10.106-4.525-10.106-10.107 0-5.582 4.525-10.107 10.106-10.107 5.582 0 10.107 4.525 10.107 10.107z" stroke="#E0542F" mask="url(#ff)"/><path d="M186.777 91.267c5.92-5.92 5.92-15.52 0-21.44-5.92-5.92-15.52-5.92-21.44 0l21.44 21.44z" stroke="#EFA047" stroke-width="2" mask="url(#ff)"/><path d="M291.46 245.937l.354-.354a16.708 16.708 0 0 0-.36-.347" stroke="#71498C" mask="url(#ff)"/><path d="M290.709 244.581c-5.955-4.896-14.77-4.562-20.334 1.002-5.684 5.684-5.911 14.758-.682 20.712" stroke="#71498C" stroke-dasharray="0.992,0.992" mask="url(#ff)"/><path d="M270.026 266.664c.114.12.23.24.349.359l.353-.353" stroke="#71498C" mask="url(#ff)"/><path d="M271.443 265.954l19.66-19.66" stroke="#71498C" stroke-dasharray="1.011,1.011" mask="url(#ff)"/><path stroke="#71498C" mask="url(#ff)" d="M144.34 33.448v.5h-.5"/><path d="M142.829 33.948h-17.697" stroke="#71498C" stroke-dasharray="1.011,1.011" mask="url(#ff)"/><path stroke="#71498C" mask="url(#ff)" d="M124.627 33.948h-.5v-.5"/><path d="M124.127 32.437V14.741" stroke="#71498C" stroke-dasharray="1.011,1.011" mask="url(#ff)"/><path stroke="#71498C" mask="url(#ff)" d="M124.127 14.235v-.5h.5"/><path d="M125.638 13.735h17.697" stroke="#71498C" stroke-dasharray="1.011,1.011" mask="url(#ff)"/><path stroke="#71498C" mask="url(#ff)" d="M143.84 13.735h.5v.5"/><path d="M144.34 15.246v17.696" stroke="#71498C" stroke-dasharray="1.011,1.011" mask="url(#ff)"/><path stroke="#00A3DB" stroke-width="1.5" mask="url(#ff)" d="M87.613 91.23H97.72V71.017H87.613z"/><path stroke="#E0542F" mask="url(#ff)" d="M314.053 42.631h20.213V22.418h-20.213z"/><path stroke="#00A3DB" stroke-width="1.5" mask="url(#ff)" d="M1576.633 505.924l-14.293-14.293 14.293-14.293 14.293 14.293z"/><path d="M1592.342 374.753a51.827 51.827 0 0 1-13.518-26.818 18.915 18.915 0 0 0-9.813 5.354c-7.33 7.517-7.18 19.555.337 26.886 5.295 5.163 12.826 6.598 19.381 4.379a18.91 18.91 0 0 0 7.505-4.717c.25-.256.47-.53.702-.796a52.34 52.34 0 0 1-3.184-2.842 51.82 51.82 0 0 1-1.41-1.446z" stroke="#286AA6" mask="url(#ff)"/><path d="M1270.562 435.416a51.834 51.834 0 0 1-16.326-25.207 18.922 18.922 0 0 0-9.18 6.379c-6.48 8.262-5.033 20.214 3.23 26.693 5.819 4.563 13.46 5.179 19.739 2.267a18.906 18.906 0 0 0 6.954-5.496c.22-.282.409-.578.61-.867a53.103 53.103 0 0 1-3.47-2.483 52.878 52.878 0 0 1-1.557-1.286z" stroke="#EFA047" stroke-width="2" mask="url(#ff)"/><path d="M1247.475 300.24c4.529 3.263 5.557 9.579 2.295 14.108-3.261 4.53-9.577 5.557-14.107 2.295l-5.906 8.202c9.059 6.523 21.69 4.468 28.215-4.591 6.523-9.06 4.468-21.691-4.591-28.215l-5.906 8.202z" stroke="#292D78" mask="url(#ff)"/><path stroke="#286AA6" mask="url(#ff)" d="M1485.34 482.983l20.213 20.213V462.77l-20.213 20.213"/><path stroke="#00A3DB" stroke-width="1.5" mask="url(#ff)" d="M1365.749 520.937l20.213 20.213h-40.426l20.213-20.213"/><path stroke="#286AA6" mask="url(#ff)" d="M1404.407 381.12h-28.586l28.586-28.586v28.586"/><path d="M1313.983 508.599l-.354-.354" stroke="#71498C" mask="url(#ff)"/><path d="M1312.907 507.523l-18.423-18.422" stroke="#71498C" stroke-dasharray="1.022,1.022" mask="url(#ff)"/><path stroke="#71498C" mask="url(#ff)" d="M1294.123 488.74l-.354-.355h.5"/><path d="M1295.28 488.386h37.91" stroke="#71498C" stroke-dasharray="1.011,1.011" mask="url(#ff)"/><path stroke="#71498C" mask="url(#ff)" d="M1333.696 488.386h.5l-.354.354"/><path d="M1333.12 489.462l-18.421 18.422" stroke="#71498C" stroke-dasharray="1.022,1.022" mask="url(#ff)"/><path d="M1314.337 508.245l-.354.354" stroke="#71498C" mask="url(#ff)"/><path stroke="#00A3DB" stroke-width="1.5" mask="url(#ff)" d="M1431.439 444.279h10.107v-20.213h-10.107z"/><path stroke="#EFA047" stroke-width="2" mask="url(#ff)" d="M1530.625 548.15h10.107v-20.213h-10.107z"/><path d="M1490.89 371.005h-.5c0 .168-.005.334-.013.5" stroke="#71498C" mask="url(#ff)"/><path d="M1490.28 372.492c-.718 4.877-4.92 8.619-9.997 8.619-5.25 0-9.564-4.002-10.06-9.121" stroke="#71498C" stroke-dasharray="0.992,0.992" mask="url(#ff)"/><path d="M1470.189 371.505a10.365 10.365 0 0 1-.012-.5h-.5" stroke="#71498C" mask="url(#ff)"/><path d="M1468.664 371.005h-7.589" stroke="#71498C" stroke-dasharray="1.012,1.012" mask="url(#ff)"/><path d="M1460.57 371.005h-.5c0 .167.002.334.006.5" stroke="#71498C" mask="url(#ff)"/><path d="M1460.124 372.495c.763 10.467 9.497 18.722 20.159 18.722 10.829 0 19.669-8.516 20.189-19.216" stroke="#71498C" stroke-dasharray="0.992,0.992" mask="url(#ff)"/><path d="M1500.49 371.505c.004-.166.006-.333.006-.5h-.5" stroke="#71498C" mask="url(#ff)"/><path d="M1498.984 371.005h-7.589" stroke="#71498C" stroke-dasharray="1.012,1.012" mask="url(#ff)"/><path d="M1406.685 477.32c-5.582 0-10.107 4.524-10.107 10.106s4.525 10.107 10.107 10.107v-20.214z" stroke="#EFA047" stroke-width="2" mask="url(#ff)"/><path d="M1278.292 532.296c0 5.582-4.525 10.107-10.107 10.107-5.581 0-10.106-4.525-10.106-10.107 0-5.582 4.525-10.107 10.106-10.107 5.582 0 10.107 4.525 10.107 10.107zm82.621-103.352c0 5.582-4.525 10.107-10.107 10.107-5.581 0-10.106-4.525-10.106-10.107 0-5.582 4.525-10.107 10.106-10.107 5.582 0 10.107 4.525 10.107 10.107z" stroke="#292D78" mask="url(#ff)"/><path d="M1544.203 426.643c0 5.582-4.525 10.107-10.107 10.107-5.58 0-10.106-4.525-10.106-10.107 0-5.582 4.525-10.107 10.106-10.107 5.582 0 10.107 4.525 10.107 10.107z" stroke="#E0542F" mask="url(#ff)"/><path d="M1451.86 309.375c-6.47-5.312-16.024-4.372-21.336 2.1-5.312 6.471-4.373 16.023 2.1 21.335l19.236-23.435z" stroke="#EFA047" stroke-width="2" mask="url(#ff)"/><path d="M1469.832 521.29l.354-.353a16.708 16.708 0 0 0-.36-.347" stroke="#71498C" mask="url(#ff)"/><path d="M1469.08 519.935c-5.954-4.896-14.77-4.562-20.333 1.002-5.684 5.684-5.911 14.758-.682 20.712" stroke="#71498C" stroke-dasharray="0.992,0.992" mask="url(#ff)"/><path d="M1448.398 542.017c.114.121.23.241.348.36l.353-.354" stroke="#71498C" mask="url(#ff)"/><path d="M1449.815 541.308l19.66-19.66" stroke="#71498C" stroke-dasharray="1.011,1.011" mask="url(#ff)"/><path stroke="#71498C" mask="url(#ff)" d="M1183.18 444.104h-.5v-.5"/><path d="M1182.68 442.593V414.79" stroke="#71498C" stroke-dasharray="1.011,1.011" mask="url(#ff)"/><path stroke="#71498C" mask="url(#ff)" d="M1182.68 414.284v-.5h.5"/><path d="M1184.19 413.784h17.697" stroke="#71498C" stroke-dasharray="1.011,1.011" mask="url(#ff)"/><path stroke="#71498C" mask="url(#ff)" d="M1202.393 413.784h.5v.5"/><path d="M1202.893 415.296v27.803" stroke="#71498C" stroke-dasharray="1.011,1.011" mask="url(#ff)"/><path stroke="#71498C" mask="url(#ff)" d="M1202.893 443.604v.5h-.5"/><path d="M1201.381 444.104h-17.696" stroke="#71498C" stroke-dasharray="1.011,1.011" mask="url(#ff)"/><path stroke="#00A3DB" stroke-width="1.5" mask="url(#ff)" d="M1213.633 502.374l-14.293-14.293 14.293-14.293 14.293 14.293zM1340.7 330.945l-14.293-14.293 14.293-14.293 14.293 14.293z"/><path stroke="#71498C" mask="url(#ff)" d="M1294.579 384.04h-.5v-.5"/><path d="M1294.079 382.529v-17.696" stroke="#71498C" stroke-dasharray="1.011,1.011" mask="url(#ff)"/><path stroke="#71498C" mask="url(#ff)" d="M1294.079 364.327v-.5h.5"/><path d="M1295.59 363.827h7.59" stroke="#71498C" stroke-dasharray="1.012,1.012" mask="url(#ff)"/><path stroke="#71498C" mask="url(#ff)" d="M1303.685 363.827h.5v.5"/><path d="M1304.185 365.338v17.696" stroke="#71498C" stroke-dasharray="1.011,1.011" mask="url(#ff)"/><path stroke="#71498C" mask="url(#ff)" d="M1304.185 383.54v.5h-.5"/><path d="M1302.674 384.04h-7.59" stroke="#71498C" stroke-dasharray="1.012,1.012" mask="url(#ff)"/><path stroke="#E0542F" mask="url(#ff)" d="M1520.519 335.441h20.213v-20.213h-20.213z"/><path d="M1209.04 363.124a51.827 51.827 0 0 1-13.518-26.818 18.915 18.915 0 0 0-9.813 5.354c-7.331 7.517-7.18 19.555.337 26.886 5.295 5.163 12.826 6.598 19.38 4.38a18.91 18.91 0 0 0 7.506-4.718c.25-.256.469-.53.702-.796a52.34 52.34 0 0 1-3.184-2.842 51.82 51.82 0 0 1-1.41-1.446zm-366.236 54.861a51.84 51.84 0 0 1-17.665 24.288 18.919 18.919 0 0 0 9.25 6.277c10.038 3.081 20.673-2.56 23.754-12.598 2.17-7.069 0-14.423-4.97-19.237a18.909 18.909 0 0 0-7.628-4.517c-.342-.104-.686-.174-1.029-.259a52.59 52.59 0 0 1-1.07 4.131c-.2.648-.42 1.281-.642 1.915z" stroke="#286AA6" mask="url(#ff)"/><path d="M1144.02 480.136l-.353.354c.119.118.24.233.363.344" stroke="#71498C" mask="url(#ff)"/><path d="M1144.795 481.464c3.957 2.94 9.575 2.615 13.164-.975 3.712-3.712 3.933-9.593.663-13.563" stroke="#71498C" stroke-dasharray="0.992,0.992" mask="url(#ff)"/><path d="M1158.305 466.558a9.022 9.022 0 0 0-.345-.361l-.353.353" stroke="#71498C" mask="url(#ff)"/><path d="M1156.891 467.265l-12.513 12.513" stroke="#71498C" stroke-dasharray="1.011,1.011" mask="url(#ff)"/><path d="M836.27 300.055c3.947 3.947 3.947 10.346 0 14.293-3.947 3.947-10.346 3.947-14.293 0l-7.146 7.146c7.893 7.894 20.692 7.894 28.586 0 7.893-7.894 7.893-20.692 0-28.586l-7.147 7.147z" stroke="#00A3DB" stroke-width="1.5" mask="url(#ff)"/><path stroke="#286AA6" mask="url(#ff)" d="M1071.84 482.983l20.213 20.213V462.77l-20.213 20.213"/><path stroke="#292D78" mask="url(#ff)" d="M970.724 536.534l20.213 20.213H950.51l20.213-20.212"/><path stroke="#286AA6" mask="url(#ff)" d="M1038.907 328.666h-28.586l28.586-28.586v28.586"/><path d="M890.685 508.599l-.354-.354" stroke="#71498C" mask="url(#ff)"/><path d="M889.61 507.523L871.185 489.1" stroke="#71498C" stroke-dasharray="1.022,1.022" mask="url(#ff)"/><path stroke="#71498C" mask="url(#ff)" d="M870.826 488.74l-.354-.355h.5"/><path d="M871.983 488.386h37.91" stroke="#71498C" stroke-dasharray="1.011,1.011" mask="url(#ff)"/><path stroke="#71498C" mask="url(#ff)" d="M910.399 488.386h.5l-.354.354"/><path d="M909.823 489.462L891.4 507.884" stroke="#71498C" stroke-dasharray="1.022,1.022" mask="url(#ff)"/><path d="M891.04 508.245l-.355.354m127.753-64.319h-.5v-.5" stroke="#71498C" mask="url(#ff)"/><path d="M1017.938 442.768v-17.696" stroke="#71498C" stroke-dasharray="1.011,1.011" mask="url(#ff)"/><path stroke="#71498C" mask="url(#ff)" d="M1017.938 424.566v-.5h.5"/><path d="M1019.45 424.066h7.59" stroke="#71498C" stroke-dasharray="1.012,1.012" mask="url(#ff)"/><path stroke="#71498C" mask="url(#ff)" d="M1027.545 424.066h.5v.5"/><path d="M1028.045 425.577v17.696" stroke="#71498C" stroke-dasharray="1.011,1.011" mask="url(#ff)"/><path stroke="#71498C" mask="url(#ff)" d="M1028.045 443.78v.5h-.5"/><path d="M1026.533 444.28h-7.589" stroke="#71498C" stroke-dasharray="1.012,1.012" mask="url(#ff)"/><path stroke="#EFA047" stroke-width="2" mask="url(#ff)" d="M1155.54 554.018h10.107v-20.213h-10.107z"/><path d="M1076.89 371.005c0 5.582-4.526 10.106-10.107 10.106-5.582 0-10.107-4.524-10.107-10.106h-10.107c0 11.163 9.05 20.212 20.214 20.212 11.163 0 20.213-9.05 20.213-20.212h-10.107z" stroke="#292D78" mask="url(#ff)"/><path d="M993.185 477.32c-5.582 0-10.107 4.524-10.107 10.106s4.525 10.107 10.107 10.107v-20.214zm-144.078 72.621c0 5.582-4.525 10.107-10.107 10.107-5.58 0-10.106-4.525-10.106-10.107 0-5.582 4.525-10.107 10.106-10.107 5.582 0 10.107 4.525 10.107 10.107z" stroke="#EFA047" stroke-width="2" mask="url(#ff)"/><path d="M947.413 428.944c0 5.582-4.525 10.107-10.107 10.107-5.581 0-10.106-4.525-10.106-10.107 0-5.582 4.525-10.107 10.106-10.107 5.582 0 10.107 4.525 10.107 10.107z" stroke="#292D78" mask="url(#ff)"/><path d="M1130.703 426.643c0 5.582-4.525 10.107-10.107 10.107-5.58 0-10.106-4.525-10.106-10.107 0-5.582 4.525-10.107 10.106-10.107 5.582 0 10.107 4.525 10.107 10.107z" stroke="#E0542F" mask="url(#ff)"/><path d="M979.743 384.077c5.92-5.92 5.92-15.52 0-21.44-5.92-5.92-15.52-5.92-21.44 0l21.44 21.44z" stroke="#EFA047" stroke-width="2" mask="url(#ff)"/><path d="M1071.678 525.59l.354-.354a16.708 16.708 0 0 0-.36-.347" stroke="#71498C" mask="url(#ff)"/><path d="M1070.927 524.234c-5.955-4.896-14.77-4.562-20.334 1.002-5.684 5.684-5.911 14.758-.682 20.712" stroke="#71498C" stroke-dasharray="0.992,0.992" mask="url(#ff)"/><path d="M1050.245 546.316c.114.121.229.241.348.36l.352-.354" stroke="#71498C" mask="url(#ff)"/><path d="M1051.66 545.607l19.66-19.66" stroke="#71498C" stroke-dasharray="1.011,1.011" mask="url(#ff)"/><path stroke="#71498C" mask="url(#ff)" d="M937.306 326.258v.5h-.5"/><path d="M935.795 326.758h-17.696" stroke="#71498C" stroke-dasharray="1.011,1.011" mask="url(#ff)"/><path stroke="#71498C" mask="url(#ff)" d="M917.593 326.758h-.5v-.5"/><path d="M917.093 325.247v-17.696" stroke="#71498C" stroke-dasharray="1.011,1.011" mask="url(#ff)"/><path stroke="#71498C" mask="url(#ff)" d="M917.093 307.045v-.5h.5"/><path d="M918.604 306.545H936.3" stroke="#71498C" stroke-dasharray="1.011,1.011" mask="url(#ff)"/><path stroke="#71498C" mask="url(#ff)" d="M936.806 306.545h.5v.5"/><path d="M937.306 308.056v17.696" stroke="#71498C" stroke-dasharray="1.011,1.011" mask="url(#ff)"/><path stroke="#00A3DB" stroke-width="1.5" mask="url(#ff)" d="M880.579 384.04h10.107v-20.213h-10.107zm226.44-48.599h20.213v-20.213h-20.213zM783.667 505.924l-14.293-14.293 14.293-14.293 14.293 14.293z"/><path d="M799.376 374.753a51.827 51.827 0 0 1-13.518-26.818 18.92 18.92 0 0 0-9.813 5.354c-7.33 7.517-7.18 19.555.337 26.886 5.295 5.163 12.826 6.598 19.382 4.379a18.913 18.913 0 0 0 7.504-4.717c.25-.256.47-.53.702-.796a52.34 52.34 0 0 1-3.184-2.842 51.82 51.82 0 0 1-1.41-1.446z" stroke="#286AA6" mask="url(#ff)"/><path d="M477.596 435.416a51.834 51.834 0 0 1-16.326-25.207 18.922 18.922 0 0 0-9.18 6.379c-6.48 8.262-5.033 20.214 3.23 26.693 5.819 4.563 13.46 5.179 19.739 2.267a18.906 18.906 0 0 0 6.954-5.496c.22-.282.409-.578.61-.867a53.103 53.103 0 0 1-3.47-2.483c-.533-.418-1.045-.852-1.557-1.286z" stroke="#EFA047" stroke-width="2" mask="url(#ff)"/><path d="M454.509 300.24c4.529 3.263 5.557 9.579 2.295 14.108-3.261 4.53-9.577 5.557-14.107 2.295l-5.906 8.202c9.059 6.523 21.69 4.468 28.215-4.591 6.523-9.06 4.468-21.691-4.591-28.215l-5.906 8.202z" stroke="#292D78" mask="url(#ff)"/><path stroke="#286AA6" mask="url(#ff)" d="M689.669 466.543l20.213 20.212V446.33l-20.213 20.213M574 533.493l20.214 20.213h-40.426L574 533.493m37.441-152.373h-28.586l28.586-28.586v28.586"/><path d="M521.017 508.599l-.354-.354" stroke="#71498C" mask="url(#ff)"/><path d="M519.941 507.523L501.518 489.1" stroke="#71498C" stroke-dasharray="1.022,1.022" mask="url(#ff)"/><path stroke="#71498C" mask="url(#ff)" d="M501.157 488.74l-.354-.355h.5"/><path d="M502.315 488.386h37.91" stroke="#71498C" stroke-dasharray="1.011,1.011" mask="url(#ff)"/><path stroke="#71498C" mask="url(#ff)" d="M540.73 488.386h.5l-.354.354"/><path d="M540.154 489.462l-18.422 18.422" stroke="#71498C" stroke-dasharray="1.022,1.022" mask="url(#ff)"/><path d="M521.37 508.245l-.354.354" stroke="#71498C" mask="url(#ff)"/><path stroke="#00A3DB" stroke-width="1.5" mask="url(#ff)" d="M638.472 444.279h10.107v-20.213h-10.107z"/><path stroke="#EFA047" stroke-width="2" mask="url(#ff)" d="M765.185 552.509h10.107v-20.213h-10.107z"/><path d="M697.423 371.005c0 5.582-4.525 10.106-10.106 10.106-5.582 0-10.107-4.524-10.107-10.106h-10.107c0 11.163 9.05 20.212 20.214 20.212 11.163 0 20.213-9.05 20.213-20.212h-10.107z" stroke="#286AA6" mask="url(#ff)"/><path d="M613.72 477.32c-5.583 0-10.108 4.524-10.108 10.106s4.525 10.107 10.107 10.107v-20.214z" stroke="#EFA047" stroke-width="2" mask="url(#ff)"/><path d="M479.748 549.941c0 5.582-4.525 10.107-10.107 10.107-5.581 0-10.106-4.525-10.106-10.107 0-5.582 4.525-10.107 10.106-10.107 5.582 0 10.107 4.525 10.107 10.107z" stroke="#71498C" stroke-dasharray="0.992,0.992" mask="url(#ff)"/><path d="M567.946 428.944c0 5.582-4.525 10.107-10.107 10.107-5.58 0-10.106-4.525-10.106-10.107 0-5.582 4.525-10.107 10.106-10.107 5.582 0 10.107 4.525 10.107 10.107z" stroke="#292D78" mask="url(#ff)"/><path d="M751.237 426.643c0 5.582-4.525 10.107-10.107 10.107-5.58 0-10.106-4.525-10.106-10.107 0-5.582 4.525-10.107 10.106-10.107 5.582 0 10.107 4.525 10.107 10.107z" stroke="#E0542F" mask="url(#ff)"/><path d="M658.894 309.375c-6.47-5.312-16.024-4.372-21.336 2.1-5.312 6.471-4.373 16.023 2.1 21.335l19.236-23.435z" stroke="#EFA047" stroke-width="2" mask="url(#ff)"/><path d="M699.08 538.747l.353-.354a16.708 16.708 0 0 0-.36-.347" stroke="#71498C" mask="url(#ff)"/><path d="M698.328 537.391c-5.955-4.897-14.77-4.562-20.334 1.002-5.684 5.684-5.911 14.758-.682 20.712" stroke="#71498C" stroke-dasharray="0.992,0.992" mask="url(#ff)"/><path d="M677.646 559.474c.114.12.229.24.348.359l.353-.353" stroke="#71498C" mask="url(#ff)"/><path d="M679.062 558.765l19.66-19.66" stroke="#71498C" stroke-dasharray="1.011,1.011" mask="url(#ff)"/><path stroke="#71498C" mask="url(#ff)" d="M390.213 444.104h-.5v-.5"/><path d="M389.713 442.593V414.79" stroke="#71498C" stroke-dasharray="1.011,1.011" mask="url(#ff)"/><path stroke="#71498C" mask="url(#ff)" d="M389.713 414.284v-.5h.5"/><path d="M391.224 413.784h17.697" stroke="#71498C" stroke-dasharray="1.011,1.011" mask="url(#ff)"/><path stroke="#71498C" mask="url(#ff)" d="M409.426 413.784h.5v.5"/><path d="M409.926 415.296v27.803" stroke="#71498C" stroke-dasharray="1.011,1.011" mask="url(#ff)"/><path stroke="#71498C" mask="url(#ff)" d="M409.926 443.604v.5h-.5"/><path d="M408.415 444.104H390.72" stroke="#71498C" stroke-dasharray="1.011,1.011" mask="url(#ff)"/><path stroke="#00A3DB" stroke-width="1.5" mask="url(#ff)" d="M420.667 502.374l-14.293-14.293 14.293-14.293 14.293 14.293zM543.681 324.48h20.213v-20.213h-20.213z"/><path stroke="#71498C" mask="url(#ff)" d="M501.613 384.04h-.5v-.5"/><path d="M501.113 382.529v-17.696" stroke="#71498C" stroke-dasharray="1.011,1.011" mask="url(#ff)"/><path stroke="#71498C" mask="url(#ff)" d="M501.113 364.327v-.5h.5"/><path d="M502.624 363.827h7.59" stroke="#71498C" stroke-dasharray="1.012,1.012" mask="url(#ff)"/><path stroke="#71498C" mask="url(#ff)" d="M510.72 363.827h.5v.5"/><path d="M511.22 365.338v17.696" stroke="#71498C" stroke-dasharray="1.011,1.011" mask="url(#ff)"/><path stroke="#71498C" mask="url(#ff)" d="M511.22 383.54v.5h-.5"/><path d="M509.707 384.04h-7.589" stroke="#71498C" stroke-dasharray="1.012,1.012" mask="url(#ff)"/><path stroke="#71498C" mask="url(#ff)" d="M738.013 339.274l-.355.354-.352-.354"/><path d="M736.59 338.559l-12.513-12.513" stroke="#71498C" stroke-dasharray="1.011,1.011" mask="url(#ff)"/><path stroke="#71498C" mask="url(#ff)" d="M723.72 325.688l-.354-.354.354-.353"/><path d="M724.435 324.266l12.513-12.513" stroke="#71498C" stroke-dasharray="1.011,1.011" mask="url(#ff)"/><path stroke="#71498C" mask="url(#ff)" d="M737.306 311.395l.353-.354.354.354"/><path d="M738.728 312.11l12.513 12.513" stroke="#71498C" stroke-dasharray="1.011,1.011" mask="url(#ff)"/><path stroke="#71498C" mask="url(#ff)" d="M751.598 324.98l.354.355-.354.353"/><path d="M750.883 326.403l-12.513 12.513" stroke="#71498C" stroke-dasharray="1.011,1.011" mask="url(#ff)"/><path d="M416.074 363.124a51.827 51.827 0 0 1-13.518-26.818 18.92 18.92 0 0 0-9.813 5.354c-7.331 7.517-7.18 19.555.338 26.886 5.294 5.163 12.825 6.598 19.38 4.38a18.913 18.913 0 0 0 7.505-4.718c.25-.256.469-.53.702-.796a52.34 52.34 0 0 1-3.184-2.842 51.82 51.82 0 0 1-1.41-1.446zM49.838 417.985a51.84 51.84 0 0 1-17.665 24.288 18.919 18.919 0 0 0 9.25 6.277c10.038 3.081 20.673-2.56 23.754-12.598 2.17-7.069 0-14.423-4.97-19.237a18.909 18.909 0 0 0-7.628-4.517c-.342-.104-.686-.174-1.029-.259a52.59 52.59 0 0 1-1.07 4.131c-.2.648-.42 1.281-.642 1.915z" stroke="#286AA6" mask="url(#ff)"/><path d="M351.054 480.136l-.354.354c.12.118.24.233.363.344" stroke="#71498C" mask="url(#ff)"/><path d="M351.83 481.464c3.956 2.94 9.574 2.615 13.163-.975 3.712-3.712 3.933-9.593.663-13.563" stroke="#71498C" stroke-dasharray="0.992,0.992" mask="url(#ff)"/><path d="M365.339 466.558a10.698 10.698 0 0 0-.345-.361l-.353.353" stroke="#71498C" mask="url(#ff)"/><path d="M363.925 467.265l-12.513 12.513" stroke="#71498C" stroke-dasharray="1.011,1.011" mask="url(#ff)"/><path d="M43.304 328.64c-3.947-3.946-3.947-10.345 0-14.292 3.947-3.947 10.346-3.947 14.293 0l7.146-7.146c-7.893-7.894-20.692-7.894-28.586 0-7.893 7.894-7.893 20.692 0 28.586l7.147-7.147zm235.57 154.343l20.213 20.213V462.77l-20.213 20.213" stroke="#286AA6" mask="url(#ff)"/><path stroke="#292D78" mask="url(#ff)" d="M158.064 536.534l20.213 20.213H137.85l20.213-20.212"/><path stroke="#286AA6" mask="url(#ff)" d="M245.941 328.666h-28.586l28.586-28.586v28.586"/><path d="M97.72 508.599l-.355-.354" stroke="#71498C" mask="url(#ff)"/><path d="M96.643 507.523L78.22 489.1" stroke="#71498C" stroke-dasharray="1.022,1.022" mask="url(#ff)"/><path stroke="#71498C" mask="url(#ff)" d="M77.86 488.74l-.354-.355h.5"/><path d="M79.017 488.386h37.91" stroke="#71498C" stroke-dasharray="1.011,1.011" mask="url(#ff)"/><path stroke="#71498C" mask="url(#ff)" d="M117.433 488.386h.5l-.355.354"/><path d="M116.856 489.462l-18.421 18.422" stroke="#71498C" stroke-dasharray="1.022,1.022" mask="url(#ff)"/><path d="M98.073 508.245l-.354.354m127.753-64.319h-.5v-.5" stroke="#71498C" mask="url(#ff)"/><path d="M224.972 442.768v-17.696" stroke="#71498C" stroke-dasharray="1.011,1.011" mask="url(#ff)"/><path stroke="#71498C" mask="url(#ff)" d="M224.972 424.566v-.5h.5"/><path d="M226.484 424.066h7.59" stroke="#71498C" stroke-dasharray="1.012,1.012" mask="url(#ff)"/><path stroke="#71498C" mask="url(#ff)" d="M234.579 424.066h.5v.5"/><path d="M235.079 425.577v17.696" stroke="#71498C" stroke-dasharray="1.011,1.011" mask="url(#ff)"/><path stroke="#71498C" mask="url(#ff)" d="M235.079 443.78v.5h-.5"/><path d="M233.567 444.28h-7.589" stroke="#71498C" stroke-dasharray="1.012,1.012" mask="url(#ff)"/><path stroke="#EFA047" stroke-width="2" mask="url(#ff)" d="M350.701 550.932h10.107v-20.213h-10.107z"/><path d="M283.923 371.005c0 5.582-4.525 10.106-10.106 10.106-5.582 0-10.107-4.524-10.107-10.106h-10.107c0 11.163 9.05 20.212 20.214 20.212 11.163 0 20.213-9.05 20.213-20.212h-10.107z" stroke="#292D78" mask="url(#ff)"/><path d="M200.22 477.32c-5.583 0-10.108 4.524-10.108 10.106s4.525 10.107 10.107 10.107v-20.214zM56.141 549.941c0 5.582-4.525 10.107-10.107 10.107-5.58 0-10.106-4.525-10.106-10.107 0-5.582 4.525-10.107 10.106-10.107 5.582 0 10.107 4.525 10.107 10.107z" stroke="#EFA047" stroke-width="2" mask="url(#ff)"/><path d="M154.446 428.944c0 5.582-4.525 10.107-10.107 10.107-5.58 0-10.106-4.525-10.106-10.107 0-5.582 4.525-10.107 10.106-10.107 5.582 0 10.107 4.525 10.107 10.107zm183.291-2.301c0 5.582-4.525 10.107-10.107 10.107-5.58 0-10.106-4.525-10.106-10.107 0-5.582 4.525-10.107 10.106-10.107 5.582 0 10.107 4.525 10.107 10.107z" stroke="#292D78" mask="url(#ff)"/><path d="M186.777 384.077c5.92-5.92 5.92-15.52 0-21.44-5.92-5.92-15.52-5.92-21.44 0l21.44 21.44z" stroke="#EFA047" stroke-width="2" mask="url(#ff)"/><path d="M270.455 538.747l.354-.354a16.708 16.708 0 0 0-.36-.347" stroke="#71498C" mask="url(#ff)"/><path d="M269.704 537.391c-5.955-4.897-14.77-4.562-20.335 1.002-5.683 5.684-5.91 14.758-.682 20.712" stroke="#71498C" stroke-dasharray="0.992,0.992" mask="url(#ff)"/><path d="M249.022 559.474c.114.12.23.24.348.359l.353-.353" stroke="#71498C" mask="url(#ff)"/><path d="M250.438 558.765l19.66-19.66" stroke="#71498C" stroke-dasharray="1.011,1.011" mask="url(#ff)"/><path stroke="#71498C" mask="url(#ff)" d="M144.34 326.258v.5h-.5"/><path d="M142.829 326.758h-17.697" stroke="#71498C" stroke-dasharray="1.011,1.011" mask="url(#ff)"/><path stroke="#71498C" mask="url(#ff)" d="M124.627 326.758h-.5v-.5"/><path d="M124.127 325.247v-17.696" stroke="#71498C" stroke-dasharray="1.011,1.011" mask="url(#ff)"/><path stroke="#71498C" mask="url(#ff)" d="M124.127 307.045v-.5h.5"/><path d="M125.638 306.545h17.697" stroke="#71498C" stroke-dasharray="1.011,1.011" mask="url(#ff)"/><path stroke="#71498C" mask="url(#ff)" d="M143.84 306.545h.5v.5"/><path d="M144.34 308.056v17.696" stroke="#71498C" stroke-dasharray="1.011,1.011" mask="url(#ff)"/><path stroke="#00A3DB" stroke-width="1.5" mask="url(#ff)" d="M87.613 384.04H97.72v-20.213H87.613z"/><path stroke="#71498C" mask="url(#ff)" d="M324.512 339.274l-.353.354-.353-.354"/><path d="M323.09 338.559l-12.513-12.513" stroke="#71498C" stroke-dasharray="1.011,1.011" mask="url(#ff)"/><path stroke="#71498C" mask="url(#ff)" d="M310.22 325.688l-.354-.354.354-.353"/><path d="M310.935 324.266l12.513-12.513" stroke="#71498C" stroke-dasharray="1.011,1.011" mask="url(#ff)"/><path stroke="#71498C" mask="url(#ff)" d="M323.805 311.395l.354-.354.353.354"/><path d="M325.228 312.11l12.513 12.513" stroke="#71498C" stroke-dasharray="1.011,1.011" mask="url(#ff)"/><path stroke="#71498C" mask="url(#ff)" d="M338.099 324.98l.353.355-.353.353"/><path d="M337.383 326.403l-12.513 12.513" stroke="#71498C" stroke-dasharray="1.011,1.011" mask="url(#ff)"/></g></g></svg><svg width="86" height="86" viewBox="0 0 86 86" id="promises--ic-adv" y="1101"><title>194BF535-D92F-4A75-8928-55D63D3928F7</title><g fill="none" fill-rule="evenodd"><path fill="#E0542F" d="M0 86h86V0H0z"/><path fill="#FBCC21" d="M29 43.426L49.426 23v40.852zM15 43.5l7.5 7.5V36z"/><path fill="#71498C" d="M22 51.106h15.107V36H22z"/><path d="M56.777 38.297a5.16 5.16 0 0 1 0 10.32v5.16c5.699 0 10.32-4.62 10.32-10.32s-4.62-10.32-10.32-10.32v5.16z" fill="#FBCC21"/><path fill="#71498C" d="M26 51v6h3v-6z"/></g></svg><svg width="86" height="86" viewBox="0 0 86 86" id="promises--ic-games" y="1187"><title>6A16B11F-6EE8-4046-8D98-6AFF7E84AA93</title><g fill="none" fill-rule="evenodd"><path fill="#99C973" d="M0 86h86V0H0z"/><path d="M64 55.426c5.22 0 9.452-4.572 9.452-10.213C73.452 39.573 69.22 35 64 35v20.426z" fill="#292D78"/><path d="M64 51.426c5.22 0 9.452-4.572 9.452-10.213C73.452 35.573 69.22 31 64 31v20.426z" fill="#71498C"/><path d="M22.452 35C17.232 35 13 39.572 13 45.213c0 5.64 4.232 10.213 9.452 10.213V35z" fill="#292D78"/><path d="M22.452 31C17.232 31 13 35.573 13 41.213c0 5.64 4.232 10.213 9.452 10.213V31z" fill="#71498C"/><path fill="#286AA6" d="M22 56h42V35H22z"/><path fill="#00A3DB" d="M22 52h42V31H22z"/><path fill="#292D78" d="M47 38L33 52h28z"/><path fill="#E0542F" d="M66 45h4v-2h-4z"/><path fill="#99C973" d="M16 40h4v-2h-4z"/><path fill="#292D78" d="M17 42v4h2v-4z"/><path fill="#292D78" d="M20 43h-4v2h4z"/><path d="M33 41a3 3 0 1 1 0-6 3 3 0 0 1 0 6m35 0a2 2 0 1 1 0-4 2 2 0 0 1 0 4" fill="#FBCC21"/></g></svg><svg width="86" height="86" viewBox="0 0 86 86" id="promises--ic-home" y="1273"><title>40FDE677-3ED1-4E8A-B804-F4F32825974E</title><g fill="none" fill-rule="evenodd"><path fill="#292D78" d="M0 86h86V0H0z"/><path d="M62.645 15.337a19.317 19.317 0 0 1 4.547 10.227 7.085 7.085 0 0 0 4.11-11.829 7.079 7.079 0 0 0-7.135-1.98 7.049 7.049 0 0 0-2.879 1.62c-.097.09-.184.188-.275.283.389.355.77.724 1.134 1.116.172.184.335.374.498.563" fill="#FBCC21"/><path fill="#71498C" d="M43.19 22l27.19 27.19H16"/><path fill="#286AA6" d="M23 68.978h39.956V49H23z"/><path d="M31.511 62.022a4.511 4.511 0 1 1 0-9.022 4.511 4.511 0 0 1 0 9.022" fill="#FBCC21"/><path fill="#00A3DB" d="M56.582 69.163V56H50v13.163z"/></g></svg><svg width="16" height="16" viewBox="0 0 16 16" id="promises--ic-list-bullet-1" y="1359"><title>08DDC73A-2503-432E-8897-8934F405ED3B</title><path d="M0 16V0l16 16z" fill="#FBCC21" fill-rule="evenodd"/></svg><svg width="16" height="8" viewBox="0 0 16 8" id="promises--ic-list-bullet-2" y="1375"><title>40604B74-289A-47BB-B3E3-87D946CDA14E</title><path d="M16 8A8 8 0 0 0 0 8h16z" fill="#EFA047" fill-rule="evenodd"/></svg><svg width="16" height="8" viewBox="0 0 16 8" id="promises--ic-list-bullet-3" y="1383"><title>6118911E-2F3F-46AF-B086-D6A1A511631E</title><path d="M0 8h16V0H0z" fill="#00A3DB" fill-rule="evenodd"/></svg><svg width="16" height="16" viewBox="0 0 16 16" id="promises--ic-list-bullet-4" y="1391"><title>B57DF6DA-BF3B-4A48-BCF2-E808E71DBB92</title><path d="M0 16h16V0H0z" fill="#E0542F" fill-rule="evenodd"/></svg><svg width="16" height="16" viewBox="0 0 16 16" id="promises--ic-list-bullet-5" y="1407"><title>6063169E-57C6-4E39-B1D2-78457BBDD0BF</title><path d="M8 16A8 8 0 1 1 8 0a8 8 0 0 1 0 16" fill="#00A765" fill-rule="evenodd"/></svg><svg width="16" height="15" viewBox="0 0 16 15" id="promises--ic-list-bullet-6" y="1423"><title>0ACF74AE-E313-4AC8-B730-51A6137F4849</title><path d="M13.417 7.546A22.145 22.145 0 0 1 3.041 0a8.122 8.122 0 0 0 2.7 14.099c3.02.927 6.162 0 8.219-2.124a8.08 8.08 0 0 0 1.93-3.258c.044-.146.074-.293.11-.44a22.47 22.47 0 0 1-1.765-.457 22.41 22.41 0 0 1-.818-.274" fill="#286AA6" fill-rule="evenodd"/></svg><svg width="16" height="16" viewBox="0 0 16 16" id="promises--ic-list-bullet-7" y="1438"><title>7334A49D-E2EA-43E7-BCD4-D390925A4B5A</title><path d="M8 16A8 8 0 1 1 8 0a8 8 0 0 1 0 16" fill="#71498C" fill-rule="evenodd"/></svg><svg width="86" height="86" viewBox="0 0 86 86" id="promises--ic-tech" y="1454"><title>FBC26865-B03B-4634-B721-0ED990167A26</title><g fill="none" fill-rule="evenodd"><path fill="#FBCC21" d="M0 86h86V0H0z"/><path fill="#71498C" d="M37 69h12v-6H37zm-27-9h66V24H10z"/><path fill="#00A3DB" d="M12 57h62V26H12z"/><path d="M34.658 48.405a36.54 36.54 0 0 1 21.12 1.487 13.33 13.33 0 0 0 .297-7.875c-1.908-7.152-9.253-11.403-16.405-9.494-5.038 1.343-8.623 5.387-9.644 10.158a13.335 13.335 0 0 0 .149 6.247c.065.244.152.475.23.712a37.08 37.08 0 0 1 2.869-.904c.461-.122.923-.227 1.384-.331" fill="#FBCC21"/><path fill="#292D78" d="M43 60v4.952h2.157V60"/><path fill="#286AA6" d="M41 60v4.952h2.157V60"/></g></svg><svg width="24" height="24" viewBox="0 0 24 24" id="social--ic-facebook" y="1540"><title>92242F1D-56F2-4ED6-8E19-B75490C679CC</title><g fill="none" fill-rule="evenodd"><path d="M0 15C0 6.716 6.716 0 15 0c8.284 0 15 6.716 15 15 0 8.284-6.716 15-15 15-8.284 0-15-6.716-15-15z" fill="#3B5998"/><path d="M16.063 23.32v-8.161h2.253l.299-2.812h-2.552l.004-1.408c0-.733.07-1.126 1.123-1.126h1.41V7h-2.253c-2.707 0-3.66 1.364-3.66 3.658v1.689H11v2.812h1.687v8.16h3.376z" fill="#FFF"/></g></svg><svg width="24" height="24" viewBox="0 0 24 24" id="social--ic-twitter" y="1564"><title>02707DBF-2AD9-4BA7-92F2-E210CCD5F353</title><g fill="none" fill-rule="evenodd"><path d="M0 15C0 6.716 6.716 0 15 0c8.284 0 15 6.716 15 15 0 8.284-6.716 15-15 15-8.284 0-15-6.716-15-15z" fill="#55ACEE"/><path d="M14.55 12.192l.032.52-.524-.064c-1.91-.244-3.578-1.07-4.995-2.458l-.692-.688-.179.508c-.377 1.134-.136 2.33.651 3.136.42.444.325.508-.399.243-.252-.085-.472-.148-.493-.116-.073.074.179 1.038.378 1.419.273.53.829 1.049 1.437 1.356l.514.243-.608.011c-.588 0-.609.01-.546.233.21.689 1.039 1.42 1.962 1.737l.65.223-.566.339a5.907 5.907 0 0 1-2.812.784c-.472.01-.86.053-.86.084 0 .106 1.28.7 2.025.932 2.235.689 4.89.392 6.883-.783 1.416-.837 2.833-2.5 3.494-4.11.357-.858.713-2.426.713-3.178 0-.487.032-.55.62-1.133.346-.34.67-.71.734-.816.105-.201.094-.201-.44-.021-.893.317-1.019.275-.578-.202.325-.339.713-.953.713-1.133 0-.032-.157.021-.335.117-.19.106-.609.264-.924.36l-.566.18-.514-.35c-.284-.19-.682-.402-.892-.466-.535-.148-1.354-.127-1.836.043-1.312.476-2.14 1.705-2.046 3.05z" fill="#FFF"/></g></svg><svg width="24" height="24" viewBox="0 0 24 24" id="social--ic-v-k" y="1588"><title>F934D119-B042-42ED-95A2-E57FB1D91648</title><g fill="none" fill-rule="evenodd"><path d="M0 15C0 6.716 6.716 0 15 0c8.284 0 15 6.716 15 15 0 8.284-6.716 15-15 15-8.284 0-15-6.716-15-15z" fill="#4C6C91"/><path d="M15.785 19.423s.288-.032.436-.188c.136-.143.131-.412.131-.412s-.018-1.26.578-1.445c.586-.183 1.34 1.217 2.14 1.756.604.407 1.063.318 1.063.318l2.137-.03s1.117-.067.587-.93c-.043-.07-.309-.638-1.588-1.804-1.34-1.22-1.16-1.023.453-3.135.983-1.286 1.376-2.07 1.253-2.407-.117-.32-.84-.235-.84-.235l-2.405.014s-.179-.024-.311.054c-.13.076-.213.253-.213.253s-.38.995-.888 1.842c-1.072 1.785-1.5 1.88-1.675 1.769-.408-.26-.306-1.039-.306-1.593 0-1.73.268-2.452-.52-2.638-.262-.062-.454-.103-1.123-.11-.859-.009-1.585.003-1.997.2-.273.132-.485.425-.356.442.16.02.52.095.71.35.247.33.238 1.069.238 1.069s.142 2.037-.33 2.29c-.325.173-.77-.18-1.725-1.8a14.94 14.94 0 0 1-.858-1.748s-.072-.17-.2-.263c-.153-.111-.369-.146-.369-.146l-2.285.015s-.344.009-.47.156c-.112.13-.009.399-.009.399s1.79 4.11 3.817 6.182c1.859 1.899 3.968 1.775 3.968 1.775h.957z" fill="#FFF"/></g></svg></svg>