<svg width="86" height="86" viewBox="0 0 86 86" xmlns="http://www.w3.org/2000/svg"><title>FBC26865-B03B-4634-B721-0ED990167A26</title><g fill="none" fill-rule="evenodd"><path fill="#FBCC21" d="M0 86h86V0H0z"/><path fill="#71498C" d="M37 69h12v-6H37zM10 60h66V24H10z"/><path fill="#00A3DB" d="M12 57h62V26H12z"/><path d="M34.658 48.405c7.281-1.649 14.581-1 21.12 1.487a13.33 13.33 0 0 0 .297-7.875c-1.908-7.152-9.253-11.403-16.405-9.494-5.038 1.343-8.623 5.387-9.644 10.158a13.335 13.335 0 0 0 .149 6.247c.065.244.152.475.23.712a37.08 37.08 0 0 1 2.869-.904c.461-.122.923-.227 1.384-.331" fill="#FBCC21"/><path fill="#292D78" d="M43 60v4.952h2.157V60"/><path fill="#286AA6" d="M41 60v4.952h2.157V60"/></g></svg>